<?xml version="1.0" encoding="us-ascii" standalone="no"?><svg xmlns="http://www.w3.org/2000/svg" xmlns:xlink="http://www.w3.org/1999/xlink" contentStyleType="text/css" height="320px" preserveAspectRatio="none" style="width:553px;height:320px;background:#282828;" version="1.1" viewBox="0 0 553 320" width="553px" zoomAndPan="magnify"><defs/><g><rect fill="#282828" height="320" style="stroke:none;stroke-width:1.0;" width="553" x="0" y="0"/><!--class users--><g id="elem_users"><rect codeLine="4" fill="#282828" height="78.0293" id="users" rx="2.5" ry="2.5" style="stroke:#33FF33;stroke-width:1.0;" width="81" x="255" y="45.5"/><ellipse cx="275.2" cy="59.5" fill="#282828" rx="9" ry="9" style="stroke:#33FF33;stroke-width:1.0;"/><path d="M278.8143,66 L271.0945,66 L271.0945,53.6069 L278.8143,53.6069 L278.8143,55.7651 L273.5433,55.7651 L273.5433,58.438 L278.3162,58.438 L278.3162,60.5962 L273.5433,60.5962 L273.5433,63.8418 L278.8143,63.8418 Z " fill="#33FF33"/><text fill="#33FF33" font-family="Verdana" font-size="14" lengthAdjust="spacing" textLength="37" x="288.8" y="65.0679">users</text><line style="stroke:#33FF33;stroke-width:1.0;" x1="256" x2="335" y1="73.5" y2="73.5"/><text fill="#33FF33" font-family="Verdana" font-size="14" lengthAdjust="spacing" textLength="69" x="261" y="91.5752">username</text><line style="stroke:#33FF33;stroke-width:1.0;" x1="256" x2="335" y1="98.5146" y2="98.5146"/><ellipse cx="266" cy="112.522" fill="#282828" rx="3" ry="3" style="stroke:#33FF33;stroke-width:1.0;"/><text fill="#33FF33" font-family="Verdana" font-size="14" lengthAdjust="spacing" textLength="48" x="273" y="116.5898">id (PK)</text></g><!--class messages--><g id="elem_messages"><rect codeLine="9" fill="#282828" height="129.0732" id="messages" rx="2.5" ry="2.5" style="stroke:#33FF33;stroke-width:1.0;" width="111" x="40" y="184"/><ellipse cx="59.75" cy="198" fill="#282828" rx="9" ry="9" style="stroke:#33FF33;stroke-width:1.0;"/><path d="M63.3643,204.5 L55.6445,204.5 L55.6445,192.1069 L63.3643,192.1069 L63.3643,194.2651 L58.0933,194.2651 L58.0933,196.938 L62.8662,196.938 L62.8662,199.0962 L58.0933,199.0962 L58.0933,202.3418 L63.3643,202.3418 Z " fill="#33FF33"/><text fill="#33FF33" font-family="Verdana" font-size="14" lengthAdjust="spacing" textLength="68" x="73.25" y="203.5679">messages</text><line style="stroke:#33FF33;stroke-width:1.0;" x1="41" x2="150" y1="212" y2="212"/><text fill="#33FF33" font-family="Verdana" font-size="14" lengthAdjust="spacing" textLength="76" x="46" y="230.0752">timestamp</text><text fill="#33FF33" font-family="Verdana" font-size="14" lengthAdjust="spacing" textLength="28" x="46" y="247.0898">text</text><line style="stroke:#33FF33;stroke-width:1.0;" x1="41" x2="150" y1="254.0293" y2="254.0293"/><ellipse cx="51" cy="268.0366" fill="#282828" rx="3" ry="3" style="stroke:#33FF33;stroke-width:1.0;"/><text fill="#33FF33" font-family="Verdana" font-size="14" lengthAdjust="spacing" textLength="48" x="58" y="272.1045">id (PK)</text><text fill="#33FF33" font-family="Verdana" font-size="14" lengthAdjust="spacing" textLength="87" x="58" y="289.1191">user_id (FK)</text><text fill="#33FF33" font-family="Verdana" font-size="14" lengthAdjust="spacing" textLength="87" x="58" y="306.1338">chat_id (FK)</text></g><!--class chats--><g id="elem_chats"><rect codeLine="17" fill="#282828" height="78.0293" id="chats" rx="2.5" ry="2.5" style="stroke:#33FF33;stroke-width:1.0;" width="72" x="259.5" y="166.5"/><ellipse cx="275.65" cy="180.5" fill="#282828" rx="9" ry="9" style="stroke:#33FF33;stroke-width:1.0;"/><path d="M279.2643,187 L271.5445,187 L271.5445,174.6069 L279.2643,174.6069 L279.2643,176.7651 L273.9933,176.7651 L273.9933,179.438 L278.7662,179.438 L278.7662,181.5962 L273.9933,181.5962 L273.9933,184.8418 L279.2643,184.8418 Z " fill="#33FF33"/><text fill="#33FF33" font-family="Verdana" font-size="14" lengthAdjust="spacing" textLength="37" x="288.35" y="186.0679">chats</text><line style="stroke:#33FF33;stroke-width:1.0;" x1="260.5" x2="330.5" y1="194.5" y2="194.5"/><text fill="#33FF33" font-family="Verdana" font-size="14" lengthAdjust="spacing" textLength="39" x="265.5" y="212.5752">name</text><line style="stroke:#33FF33;stroke-width:1.0;" x1="260.5" x2="330.5" y1="219.5146" y2="219.5146"/><ellipse cx="270.5" cy="233.522" fill="#282828" rx="3" ry="3" style="stroke:#33FF33;stroke-width:1.0;"/><text fill="#33FF33" font-family="Verdana" font-size="14" lengthAdjust="spacing" textLength="48" x="277.5" y="237.5898">id (PK)</text></g><!--class invites--><g id="elem_invites"><rect codeLine="22" fill="#282828" height="129.0732" id="invites" rx="2.5" ry="2.5" style="stroke:#33FF33;stroke-width:1.0;" width="167" x="12" y="12"/><ellipse cx="68.75" cy="26" fill="#282828" rx="9" ry="9" style="stroke:#33FF33;stroke-width:1.0;"/><path d="M72.3643,32.5 L64.6445,32.5 L64.6445,20.1069 L72.3643,20.1069 L72.3643,22.2651 L67.0933,22.2651 L67.0933,24.938 L71.8662,24.938 L71.8662,27.0962 L67.0933,27.0962 L67.0933,30.3418 L72.3643,30.3418 Z " fill="#33FF33"/><text fill="#33FF33" font-family="Verdana" font-size="14" lengthAdjust="spacing" textLength="46" x="86.25" y="31.5679">invites</text><line style="stroke:#33FF33;stroke-width:1.0;" x1="13" x2="178" y1="40" y2="40"/><text fill="#33FF33" font-family="Verdana" font-size="14" lengthAdjust="spacing" textLength="76" x="18" y="58.0752">timestamp</text><line style="stroke:#33FF33;stroke-width:1.0;" x1="13" x2="178" y1="65.0146" y2="65.0146"/><ellipse cx="23" cy="79.022" fill="#282828" rx="3" ry="3" style="stroke:#33FF33;stroke-width:1.0;"/><text fill="#33FF33" font-family="Verdana" font-size="14" lengthAdjust="spacing" textLength="48" x="30" y="83.0898">id (PK)</text><text fill="#33FF33" font-family="Verdana" font-size="14" lengthAdjust="spacing" textLength="141" x="30" y="100.1045">inviter_user_id (FK)</text><text fill="#33FF33" font-family="Verdana" font-size="14" lengthAdjust="spacing" textLength="143" x="30" y="117.1191">invitee_user_id (FK)</text><text fill="#33FF33" font-family="Verdana" font-size="14" lengthAdjust="spacing" textLength="87" x="30" y="134.1338">chat_id (FK)</text></g><!--class users_chats--><g id="elem_users_chats"><rect codeLine="30" fill="#282828" height="78.0293" id="users_chats" rx="2.5" ry="2.5" style="stroke:#33FF33;stroke-width:1.0;" width="134" x="412" y="114.5"/><ellipse cx="435.35" cy="128.5" fill="#282828" rx="9" ry="9" style="stroke:#33FF33;stroke-width:1.0;"/><path d="M438.9643,135 L431.2445,135 L431.2445,122.6069 L438.9643,122.6069 L438.9643,124.7651 L433.6933,124.7651 L433.6933,127.438 L438.4662,127.438 L438.4662,129.5962 L433.6933,129.5962 L433.6933,132.8418 L438.9643,132.8418 Z " fill="#33FF33"/><text fill="#33FF33" font-family="Verdana" font-size="14" lengthAdjust="spacing" textLength="83" x="449.65" y="134.0679">users_chats</text><line style="stroke:#33FF33;stroke-width:1.0;" x1="413" x2="545" y1="142.5" y2="142.5"/><line style="stroke:#33FF33;stroke-width:1.0;" x1="413" x2="545" y1="150.5" y2="150.5"/><text fill="#33FF33" font-family="Verdana" font-size="14" lengthAdjust="spacing" textLength="122" x="418" y="168.5752">user_id (PK) (FK)</text><text fill="#33FF33" font-family="Verdana" font-size="14" lengthAdjust="spacing" textLength="122" x="418" y="185.5898">chat_id (PK) (FK)</text></g><!--link users to users_chats--><g id="link_users_users_chats"><path codeLine="35" d="M355.5,111.5 C395.52,111.5 362.98,163.5 403,163.5 " fill="none" id="users-users_chats" style="stroke:#33FF33;stroke-width:1.0;"/><line style="stroke:#33FF33;stroke-width:1.0;" x1="345.5" x2="337.5" y1="111.5" y2="117.5"/><line style="stroke:#33FF33;stroke-width:1.0;" x1="345.5" x2="337.5" y1="111.5" y2="105.5"/><line style="stroke:#33FF33;stroke-width:1.0;" x1="345.5" x2="337.5" y1="111.5" y2="111.5"/><ellipse cx="351.5" cy="111.5" fill="none" rx="4" ry="4" style="stroke:#33FF33;stroke-width:1.0;"/><line style="stroke:#33FF33;stroke-width:1.0;" x1="407" x2="407" y1="159.5" y2="167.5"/><line style="stroke:#33FF33;stroke-width:1.0;" x1="404" x2="404" y1="159.5" y2="167.5"/><line style="stroke:#33FF33;stroke-width:1.0;" x1="403" x2="411" y1="163.5" y2="163.5"/></g><!--link chats to users_chats--><g id="link_chats_users_chats"><path codeLine="36" d="M340.5,232.5 C382.35,232.5 361.15,180.5 403,180.5 " fill="none" id="chats-users_chats" style="stroke:#33FF33;stroke-width:1.0;"/><line style="stroke:#33FF33;stroke-width:1.0;" x1="340.5" x2="332.5" y1="232.5" y2="238.5"/><line style="stroke:#33FF33;stroke-width:1.0;" x1="340.5" x2="332.5" y1="232.5" y2="226.5"/><line style="stroke:#33FF33;stroke-width:1.0;" x1="340.5" x2="332.5" y1="232.5" y2="232.5"/><line style="stroke:#33FF33;stroke-width:1.0;" x1="342.5" x2="342.5" y1="236.5" y2="228.5"/><line style="stroke:#33FF33;stroke-width:1.0;" x1="407" x2="407" y1="176.5" y2="184.5"/><line style="stroke:#33FF33;stroke-width:1.0;" x1="404" x2="404" y1="176.5" y2="184.5"/><line style="stroke:#33FF33;stroke-width:1.0;" x1="403" x2="411" y1="180.5" y2="180.5"/></g><!--link messages to users--><g id="link_messages_users"><path codeLine="38" d="M160.5,283.5 C249.15,283.5 146.85,111.5 235.5,111.5 " fill="none" id="messages-users" style="stroke:#33FF33;stroke-width:1.0;"/><line style="stroke:#33FF33;stroke-width:1.0;" x1="156.5" x2="156.5" y1="287.5" y2="279.5"/><line style="stroke:#33FF33;stroke-width:1.0;" x1="159.5" x2="159.5" y1="287.5" y2="279.5"/><line style="stroke:#33FF33;stroke-width:1.0;" x1="160.5" x2="152.5" y1="283.5" y2="283.5"/><line style="stroke:#33FF33;stroke-width:1.0;" x1="245.5" x2="253.5" y1="111.5" y2="105.5"/><line style="stroke:#33FF33;stroke-width:1.0;" x1="245.5" x2="253.5" y1="111.5" y2="117.5"/><line style="stroke:#33FF33;stroke-width:1.0;" x1="245.5" x2="253.5" y1="111.5" y2="111.5"/><ellipse cx="239.5" cy="111.5" fill="none" rx="4" ry="4" style="stroke:#33FF33;stroke-width:1.0;"/></g><!--link messages to chats--><g id="link_messages_chats"><path codeLine="39" d="M160.5,300.5 C216.47,300.5 184.53,232.5 240.5,232.5 " fill="none" id="messages-chats" style="stroke:#33FF33;stroke-width:1.0;"/><line style="stroke:#33FF33;stroke-width:1.0;" x1="156.5" x2="156.5" y1="304.5" y2="296.5"/><line style="stroke:#33FF33;stroke-width:1.0;" x1="159.5" x2="159.5" y1="304.5" y2="296.5"/><line style="stroke:#33FF33;stroke-width:1.0;" x1="160.5" x2="152.5" y1="300.5" y2="300.5"/><line style="stroke:#33FF33;stroke-width:1.0;" x1="250.5" x2="258.5" y1="232.5" y2="226.5"/><line style="stroke:#33FF33;stroke-width:1.0;" x1="250.5" x2="258.5" y1="232.5" y2="238.5"/><line style="stroke:#33FF33;stroke-width:1.0;" x1="250.5" x2="258.5" y1="232.5" y2="232.5"/><ellipse cx="244.5" cy="232.5" fill="none" rx="4" ry="4" style="stroke:#33FF33;stroke-width:1.0;"/></g><!--link invites to users--><g id="link_invites_users"><path codeLine="41" d="M188.5,94.5 C221.81,94.5 202.19,111.5 235.5,111.5 " fill="none" id="invites-users" style="stroke:#33FF33;stroke-width:1.0;"/><line style="stroke:#33FF33;stroke-width:1.0;" x1="184.5" x2="184.5" y1="98.5" y2="90.5"/><line style="stroke:#33FF33;stroke-width:1.0;" x1="187.5" x2="187.5" y1="98.5" y2="90.5"/><line style="stroke:#33FF33;stroke-width:1.0;" x1="188.5" x2="180.5" y1="94.5" y2="94.5"/><line style="stroke:#33FF33;stroke-width:1.0;" x1="245.5" x2="253.5" y1="111.5" y2="105.5"/><line style="stroke:#33FF33;stroke-width:1.0;" x1="245.5" x2="253.5" y1="111.5" y2="117.5"/><line style="stroke:#33FF33;stroke-width:1.0;" x1="245.5" x2="253.5" y1="111.5" y2="111.5"/><ellipse cx="239.5" cy="111.5" fill="none" rx="4" ry="4" style="stroke:#33FF33;stroke-width:1.0;"/></g><!--link invites to users--><g id="link_invites_users"><path codeLine="42" d="M188.5,111.5 C220.94,111.5 203.06,111.5 235.5,111.5 " fill="none" id="invites-users-1" style="stroke:#33FF33;stroke-width:1.0;"/><line style="stroke:#33FF33;stroke-width:1.0;" x1="184.5" x2="184.5" y1="115.5" y2="107.5"/><line style="stroke:#33FF33;stroke-width:1.0;" x1="187.5" x2="187.5" y1="115.5" y2="107.5"/><line style="stroke:#33FF33;stroke-width:1.0;" x1="188.5" x2="180.5" y1="111.5" y2="111.5"/><line style="stroke:#33FF33;stroke-width:1.0;" x1="245.5" x2="253.5" y1="111.5" y2="105.5"/><line style="stroke:#33FF33;stroke-width:1.0;" x1="245.5" x2="253.5" y1="111.5" y2="117.5"/><line style="stroke:#33FF33;stroke-width:1.0;" x1="245.5" x2="253.5" y1="111.5" y2="111.5"/><ellipse cx="239.5" cy="111.5" fill="none" rx="4" ry="4" style="stroke:#33FF33;stroke-width:1.0;"/></g><!--link invites to chats--><g id="link_invites_chats"><path codeLine="43" d="M188.5,128.5 C246.28,128.5 182.72,232.5 240.5,232.5 " fill="none" id="invites-chats" style="stroke:#33FF33;stroke-width:1.0;"/><line style="stroke:#33FF33;stroke-width:1.0;" x1="184.5" x2="184.5" y1="132.5" y2="124.5"/><line style="stroke:#33FF33;stroke-width:1.0;" x1="187.5" x2="187.5" y1="132.5" y2="124.5"/><line style="stroke:#33FF33;stroke-width:1.0;" x1="188.5" x2="180.5" y1="128.5" y2="128.5"/><line style="stroke:#33FF33;stroke-width:1.0;" x1="250.5" x2="258.5" y1="232.5" y2="226.5"/><line style="stroke:#33FF33;stroke-width:1.0;" x1="250.5" x2="258.5" y1="232.5" y2="238.5"/><line style="stroke:#33FF33;stroke-width:1.0;" x1="250.5" x2="258.5" y1="232.5" y2="232.5"/><ellipse cx="244.5" cy="232.5" fill="none" rx="4" ry="4" style="stroke:#33FF33;stroke-width:1.0;"/></g><!--SRC=[bP1D3e8m48NtSufnfp5SW0EuSUCD284H9h75jAFH07UtG6duCz7kvlMRzrvc9oKfmin8L1WY3JUw2ag5XejIC6T3cN2b0KWBoniVbeoj0TqxSexxo_dG3vskKqNG1bIHjMb15h_WIIUSl92LgSm4ORSlgReF4xraOjtHcxwB2goVBBJLT_WnoQh8y479FmtR-NcIQRtWuv8tp8BgFFhbE7PoMqLHqqpTujWRWHyvRviEcZ7U5c2yVLZ3nj5LZI5ZWenbF1820FpztB0uryfjGT8FvDVO3m00]--></g></svg>