<?xml version="1.0" encoding="us-ascii" standalone="no"?><svg xmlns="http://www.w3.org/2000/svg" xmlns:xlink="http://www.w3.org/1999/xlink" contentStyleType="text/css" height="492px" preserveAspectRatio="none" style="width:1124px;height:492px;background:#282828;" version="1.1" viewBox="0 0 1124 492" width="1124px" zoomAndPan="magnify"><defs/><g><rect fill="#282828" height="492" style="stroke:none;stroke-width:1.0;" width="1124" x="0" y="0"/><!--class AppState--><g id="elem_AppState"><rect codeLine="3" fill="#282828" height="163.1025" id="AppState" rx="2.5" ry="2.5" style="stroke:#33FF33;stroke-width:1.0;" width="211" x="413.5" y="322.09"/><ellipse cx="482.25" cy="336.09" fill="#282828" rx="9" ry="9" style="stroke:#33FF33;stroke-width:1.0;"/><path d="M481.9834,337.153 Q480.1323,336.4474 479.4766,335.6713 Q478.8208,334.8952 478.8208,333.5837 Q478.8208,331.8986 479.8999,330.9357 Q480.979,329.9728 482.8633,329.9728 Q483.7183,329.9728 484.5732,330.1679 Q485.4282,330.3629 486.2666,330.7448 L486.2666,333.1354 Q485.478,332.5793 484.6646,332.2887 Q483.8511,331.9982 483.0542,331.9982 Q482.166,331.9982 481.6929,332.3551 Q481.2197,332.7121 481.2197,333.3761 Q481.2197,333.8908 481.5642,334.227 Q481.9087,334.5631 483.0044,334.9699 L484.0586,335.3683 Q485.5527,335.9162 486.2583,336.821 Q486.9639,337.7257 486.9639,339.1037 Q486.9639,340.9796 485.8557,341.9052 Q484.7476,342.8307 482.5063,342.8307 Q481.585,342.8307 480.6594,342.6108 Q479.7339,342.3908 478.8706,341.9591 L478.8706,339.4274 Q479.8501,340.1247 480.7673,340.465 Q481.6846,340.8053 482.5811,340.8053 Q483.4858,340.8053 483.9839,340.3944 Q484.4819,339.9836 484.4819,339.2448 Q484.4819,338.6886 484.1499,338.2694 Q483.8179,337.8503 483.187,337.6095 Z " fill="#33FF33"/><text fill="#33FF33" font-family="Verdana" font-size="14" lengthAdjust="spacing" textLength="66" x="499.75" y="341.6579">AppState</text><line style="stroke:#33FF33;stroke-width:1.0;" x1="414.5" x2="623.5" y1="350.09" y2="350.09"/><text fill="#33FF33" font-family="Verdana" font-size="14" lengthAdjust="spacing" textLength="199" x="419.5" y="368.1652">messenger: MessengerState</text><text fill="#33FF33" font-family="Verdana" font-size="14" lengthAdjust="spacing" textLength="143" x="419.5" y="385.1798">invites: InvitesState</text><text fill="#33FF33" font-family="Verdana" font-size="14" lengthAdjust="spacing" textLength="142" x="419.5" y="402.1945">search: SearchState</text><text fill="#33FF33" font-family="Verdana" font-size="14" lengthAdjust="spacing" textLength="127" x="419.5" y="419.2091">menu: MenuState</text><text fill="#33FF33" font-family="Verdana" font-size="14" lengthAdjust="spacing" textLength="154" x="419.5" y="436.2238">tutorial: TutorialState</text><text fill="#33FF33" font-family="Verdana" font-size="14" lengthAdjust="spacing" textLength="118" x="419.5" y="453.2384">error: ErrorState</text><text fill="#33FF33" font-family="Verdana" font-size="14" lengthAdjust="spacing" textLength="115" x="419.5" y="470.2531">edit_mode: bool</text><line style="stroke:#33FF33;stroke-width:1.0;" x1="414.5" x2="623.5" y1="477.1925" y2="477.1925"/></g><!--class ErrorState--><g id="elem_ErrorState"><rect codeLine="13" fill="#282828" height="78.0293" id="ErrorState" rx="2.5" ry="2.5" style="stroke:#33FF33;stroke-width:1.0;" width="118" x="12" y="175.55"/><ellipse cx="32.65" cy="189.55" fill="#282828" rx="9" ry="9" style="stroke:#33FF33;stroke-width:1.0;"/><path d="M32.3834,190.613 Q30.5323,189.9074 29.8766,189.1313 Q29.2208,188.3552 29.2208,187.0437 Q29.2208,185.3586 30.2999,184.3957 Q31.379,183.4328 33.2633,183.4328 Q34.1183,183.4328 34.9732,183.6279 Q35.8282,183.8229 36.6666,184.2048 L36.6666,186.5954 Q35.878,186.0393 35.0646,185.7487 Q34.2511,185.4582 33.4542,185.4582 Q32.566,185.4582 32.0929,185.8151 Q31.6197,186.1721 31.6197,186.8361 Q31.6197,187.3508 31.9642,187.687 Q32.3087,188.0231 33.4044,188.4299 L34.4586,188.8283 Q35.9527,189.3762 36.6583,190.281 Q37.3639,191.1857 37.3639,192.5637 Q37.3639,194.4396 36.2557,195.3652 Q35.1476,196.2907 32.9063,196.2907 Q31.985,196.2907 31.0594,196.0708 Q30.1339,195.8508 29.2706,195.4191 L29.2706,192.8874 Q30.2501,193.5847 31.1673,193.925 Q32.0846,194.2653 32.9811,194.2653 Q33.8858,194.2653 34.3839,193.8544 Q34.8819,193.4436 34.8819,192.7048 Q34.8819,192.1486 34.5499,191.7294 Q34.2179,191.3103 33.587,191.0695 Z " fill="#33FF33"/><text fill="#33FF33" font-family="Verdana" font-size="14" lengthAdjust="spacing" textLength="73" x="46.35" y="195.1179">ErrorState</text><line style="stroke:#33FF33;stroke-width:1.0;" x1="13" x2="129" y1="203.55" y2="203.55"/><text fill="#33FF33" font-family="Verdana" font-size="14" lengthAdjust="spacing" textLength="106" x="18" y="221.6252">displayed: bool</text><text fill="#33FF33" font-family="Verdana" font-size="14" lengthAdjust="spacing" textLength="89" x="18" y="238.6398">error: String</text><line style="stroke:#33FF33;stroke-width:1.0;" x1="13" x2="129" y1="245.5793" y2="245.5793"/></g><!--class TutorialState--><g id="elem_TutorialState"><rect codeLine="20" fill="#282828" height="61.0146" id="TutorialState" rx="2.5" ry="2.5" style="stroke:#33FF33;stroke-width:1.0;" width="120" x="165" y="184.06"/><ellipse cx="178" cy="198.06" fill="#282828" rx="9" ry="9" style="stroke:#33FF33;stroke-width:1.0;"/><path d="M177.7334,199.123 Q175.8823,198.4174 175.2266,197.6413 Q174.5708,196.8652 174.5708,195.5537 Q174.5708,193.8686 175.6499,192.9057 Q176.729,191.9428 178.6133,191.9428 Q179.4683,191.9428 180.3232,192.1379 Q181.1782,192.3329 182.0166,192.7148 L182.0166,195.1054 Q181.228,194.5493 180.4146,194.2587 Q179.6011,193.9682 178.8042,193.9682 Q177.916,193.9682 177.4429,194.3251 Q176.9697,194.6821 176.9697,195.3461 Q176.9697,195.8608 177.3142,196.197 Q177.6587,196.5331 178.7544,196.9399 L179.8086,197.3383 Q181.3027,197.8862 182.0083,198.791 Q182.7139,199.6957 182.7139,201.0737 Q182.7139,202.9496 181.6057,203.8752 Q180.4976,204.8007 178.2563,204.8007 Q177.335,204.8007 176.4094,204.5808 Q175.4839,204.3608 174.6206,203.9291 L174.6206,201.3974 Q175.6001,202.0947 176.5173,202.435 Q177.4346,202.7753 178.3311,202.7753 Q179.2358,202.7753 179.7339,202.3644 Q180.2319,201.9536 180.2319,201.2148 Q180.2319,200.6586 179.8999,200.2394 Q179.5679,199.8203 178.937,199.5795 Z " fill="#33FF33"/><text fill="#33FF33" font-family="Verdana" font-size="14" lengthAdjust="spacing" textLength="92" x="190" y="203.6279">TutorialState</text><line style="stroke:#33FF33;stroke-width:1.0;" x1="166" x2="284" y1="212.06" y2="212.06"/><text fill="#33FF33" font-family="Verdana" font-size="14" lengthAdjust="spacing" textLength="83" x="171" y="230.1352">text: String</text><line style="stroke:#33FF33;stroke-width:1.0;" x1="166" x2="284" y1="237.0746" y2="237.0746"/></g><!--class MenuState--><g id="elem_MenuState"><rect codeLine="26" fill="#282828" height="61.0146" id="MenuState" rx="2.5" ry="2.5" style="stroke:#33FF33;stroke-width:1.0;" width="189" x="320.5" y="184.06"/><ellipse cx="373.25" cy="198.06" fill="#282828" rx="9" ry="9" style="stroke:#33FF33;stroke-width:1.0;"/><path d="M372.9834,199.123 Q371.1323,198.4174 370.4766,197.6413 Q369.8208,196.8652 369.8208,195.5537 Q369.8208,193.8686 370.8999,192.9057 Q371.979,191.9428 373.8633,191.9428 Q374.7183,191.9428 375.5732,192.1379 Q376.4282,192.3329 377.2666,192.7148 L377.2666,195.1054 Q376.478,194.5493 375.6646,194.2587 Q374.8511,193.9682 374.0542,193.9682 Q373.166,193.9682 372.6929,194.3251 Q372.2197,194.6821 372.2197,195.3461 Q372.2197,195.8608 372.5642,196.197 Q372.9087,196.5331 374.0044,196.9399 L375.0586,197.3383 Q376.5527,197.8862 377.2583,198.791 Q377.9639,199.6957 377.9639,201.0737 Q377.9639,202.9496 376.8557,203.8752 Q375.7476,204.8007 373.5063,204.8007 Q372.585,204.8007 371.6594,204.5808 Q370.7339,204.3608 369.8706,203.9291 L369.8706,201.3974 Q370.8501,202.0947 371.7673,202.435 Q372.6846,202.7753 373.5811,202.7753 Q374.4858,202.7753 374.9839,202.3644 Q375.4819,201.9536 375.4819,201.2148 Q375.4819,200.6586 375.1499,200.2394 Q374.8179,199.8203 374.187,199.5795 Z " fill="#33FF33"/><text fill="#33FF33" font-family="Verdana" font-size="14" lengthAdjust="spacing" textLength="76" x="390.75" y="203.6279">MenuState</text><line style="stroke:#33FF33;stroke-width:1.0;" x1="321.5" x2="508.5" y1="212.06" y2="212.06"/><text fill="#33FF33" font-family="Verdana" font-size="14" lengthAdjust="spacing" textLength="177" x="326.5" y="230.1352">selected_component: i32</text><line style="stroke:#33FF33;stroke-width:1.0;" x1="321.5" x2="508.5" y1="237.0746" y2="237.0746"/></g><!--class SearchState--><g id="elem_SearchState"><rect codeLine="32" fill="#282828" height="95.0439" id="SearchState" rx="2.5" ry="2.5" style="stroke:#33FF33;stroke-width:1.0;" width="157" x="544.5" y="167.04"/><ellipse cx="576.85" cy="181.04" fill="#282828" rx="9" ry="9" style="stroke:#33FF33;stroke-width:1.0;"/><path d="M576.5834,182.103 Q574.7323,181.3974 574.0766,180.6213 Q573.4208,179.8452 573.4208,178.5337 Q573.4208,176.8486 574.4999,175.8857 Q575.579,174.9228 577.4633,174.9228 Q578.3183,174.9228 579.1732,175.1179 Q580.0282,175.3129 580.8666,175.6948 L580.8666,178.0854 Q580.078,177.5293 579.2646,177.2387 Q578.4511,176.9482 577.6542,176.9482 Q576.766,176.9482 576.2929,177.3051 Q575.8197,177.6621 575.8197,178.3261 Q575.8197,178.8408 576.1642,179.177 Q576.5087,179.5131 577.6044,179.9199 L578.6586,180.3183 Q580.1527,180.8662 580.8583,181.771 Q581.5639,182.6757 581.5639,184.0537 Q581.5639,185.9296 580.4557,186.8552 Q579.3476,187.7807 577.1063,187.7807 Q576.185,187.7807 575.2594,187.5608 Q574.3339,187.3408 573.4706,186.9091 L573.4706,184.3774 Q574.4501,185.0747 575.3673,185.415 Q576.2846,185.7553 577.1811,185.7553 Q578.0858,185.7553 578.5839,185.3444 Q579.0819,184.9336 579.0819,184.1948 Q579.0819,183.6386 578.7499,183.2194 Q578.4179,182.8003 577.787,182.5595 Z " fill="#33FF33"/><text fill="#33FF33" font-family="Verdana" font-size="14" lengthAdjust="spacing" textLength="86" x="593.15" y="186.6079">SearchState</text><line style="stroke:#33FF33;stroke-width:1.0;" x1="545.5" x2="700.5" y1="195.04" y2="195.04"/><text fill="#33FF33" font-family="Verdana" font-size="14" lengthAdjust="spacing" textLength="145" x="550.5" y="213.1152">textbox_text: String</text><text fill="#33FF33" font-family="Verdana" font-size="14" lengthAdjust="spacing" textLength="129" x="550.5" y="230.1298">result: Vec&lt;User&gt;</text><text fill="#33FF33" font-family="Verdana" font-size="14" lengthAdjust="spacing" textLength="112" x="550.5" y="247.1445">selected_id: i32</text><line style="stroke:#33FF33;stroke-width:1.0;" x1="545.5" x2="700.5" y1="254.0839" y2="254.0839"/></g><!--class InvitesState--><g id="elem_InvitesState"><rect codeLine="40" fill="#282828" height="78.0293" id="InvitesState" rx="2.5" ry="2.5" style="stroke:#33FF33;stroke-width:1.0;" width="157" x="736.5" y="175.55"/><ellipse cx="768.85" cy="189.55" fill="#282828" rx="9" ry="9" style="stroke:#33FF33;stroke-width:1.0;"/><path d="M768.5834,190.613 Q766.7323,189.9074 766.0766,189.1313 Q765.4208,188.3552 765.4208,187.0437 Q765.4208,185.3586 766.4999,184.3957 Q767.579,183.4328 769.4633,183.4328 Q770.3183,183.4328 771.1732,183.6279 Q772.0282,183.8229 772.8666,184.2048 L772.8666,186.5954 Q772.078,186.0393 771.2646,185.7487 Q770.4511,185.4582 769.6542,185.4582 Q768.766,185.4582 768.2929,185.8151 Q767.8197,186.1721 767.8197,186.8361 Q767.8197,187.3508 768.1642,187.687 Q768.5087,188.0231 769.6044,188.4299 L770.6586,188.8283 Q772.1527,189.3762 772.8583,190.281 Q773.5639,191.1857 773.5639,192.5637 Q773.5639,194.4396 772.4557,195.3652 Q771.3476,196.2907 769.1063,196.2907 Q768.185,196.2907 767.2594,196.0708 Q766.3339,195.8508 765.4706,195.4191 L765.4706,192.8874 Q766.4501,193.5847 767.3673,193.925 Q768.2846,194.2653 769.1811,194.2653 Q770.0858,194.2653 770.5839,193.8544 Q771.0819,193.4436 771.0819,192.7048 Q771.0819,192.1486 770.7499,191.7294 Q770.4179,191.3103 769.787,191.0695 Z " fill="#33FF33"/><text fill="#33FF33" font-family="Verdana" font-size="14" lengthAdjust="spacing" textLength="86" x="785.15" y="195.1179">InvitesState</text><line style="stroke:#33FF33;stroke-width:1.0;" x1="737.5" x2="892.5" y1="203.55" y2="203.55"/><text fill="#33FF33" font-family="Verdana" font-size="14" lengthAdjust="spacing" textLength="112" x="742.5" y="221.6252">selected_id: i32</text><text fill="#33FF33" font-family="Verdana" font-size="14" lengthAdjust="spacing" textLength="145" x="742.5" y="238.6398">invites: Vec&lt;Invite&gt;</text><line style="stroke:#33FF33;stroke-width:1.0;" x1="737.5" x2="892.5" y1="245.5793" y2="245.5793"/></g><!--class MessengerState--><g id="elem_MessengerState"><rect codeLine="47" fill="#282828" height="95.0439" id="MessengerState" rx="2.5" ry="2.5" style="stroke:#33FF33;stroke-width:1.0;" width="188" x="929" y="167.04"/><ellipse cx="963.6" cy="181.04" fill="#282828" rx="9" ry="9" style="stroke:#33FF33;stroke-width:1.0;"/><path d="M963.3334,182.103 Q961.4823,181.3974 960.8266,180.6213 Q960.1708,179.8452 960.1708,178.5337 Q960.1708,176.8486 961.2499,175.8857 Q962.329,174.9228 964.2133,174.9228 Q965.0683,174.9228 965.9232,175.1179 Q966.7782,175.3129 967.6166,175.6948 L967.6166,178.0854 Q966.828,177.5293 966.0146,177.2387 Q965.2011,176.9482 964.4042,176.9482 Q963.516,176.9482 963.0429,177.3051 Q962.5697,177.6621 962.5697,178.3261 Q962.5697,178.8408 962.9142,179.177 Q963.2587,179.5131 964.3544,179.9199 L965.4086,180.3183 Q966.9027,180.8662 967.6083,181.771 Q968.3139,182.6757 968.3139,184.0537 Q968.3139,185.9296 967.2057,186.8552 Q966.0976,187.7807 963.8563,187.7807 Q962.935,187.7807 962.0094,187.5608 Q961.0839,187.3408 960.2206,186.9091 L960.2206,184.3774 Q961.2001,185.0747 962.1173,185.415 Q963.0346,185.7553 963.9311,185.7553 Q964.8358,185.7553 965.3339,185.3444 Q965.8319,184.9336 965.8319,184.1948 Q965.8319,183.6386 965.4999,183.2194 Q965.1679,182.8003 964.537,182.5595 Z " fill="#33FF33"/><text fill="#33FF33" font-family="Verdana" font-size="14" lengthAdjust="spacing" textLength="112" x="980.4" y="186.6079">MessengerState</text><line style="stroke:#33FF33;stroke-width:1.0;" x1="930" x2="1116" y1="195.04" y2="195.04"/><text fill="#33FF33" font-family="Verdana" font-size="14" lengthAdjust="spacing" textLength="166" x="935" y="213.1152">chats: Vec&lt;ChatState&gt;</text><text fill="#33FF33" font-family="Verdana" font-size="14" lengthAdjust="spacing" textLength="129" x="935" y="230.1298">selected_chat: i32</text><text fill="#33FF33" font-family="Verdana" font-size="14" lengthAdjust="spacing" textLength="176" x="935" y="247.1445">messaes: Vec&lt;Message&gt;</text><line style="stroke:#33FF33;stroke-width:1.0;" x1="930" x2="1116" y1="254.0839" y2="254.0839"/></g><!--class ChatState--><g id="elem_ChatState"><rect codeLine="55" fill="#282828" height="95.0439" id="ChatState" rx="2.5" ry="2.5" style="stroke:#33FF33;stroke-width:1.0;" width="157" x="944.5" y="12"/><ellipse cx="983.75" cy="26" fill="#282828" rx="9" ry="9" style="stroke:#33FF33;stroke-width:1.0;"/><path d="M983.4834,27.063 Q981.6323,26.3574 980.9766,25.5813 Q980.3208,24.8052 980.3208,23.4937 Q980.3208,21.8086 981.3999,20.8457 Q982.479,19.8828 984.3633,19.8828 Q985.2183,19.8828 986.0732,20.0779 Q986.9282,20.2729 987.7666,20.6548 L987.7666,23.0454 Q986.978,22.4893 986.1646,22.1987 Q985.3511,21.9082 984.5542,21.9082 Q983.666,21.9082 983.1929,22.2651 Q982.7197,22.6221 982.7197,23.2861 Q982.7197,23.8008 983.0642,24.137 Q983.4087,24.4731 984.5044,24.8799 L985.5586,25.2783 Q987.0527,25.8262 987.7583,26.731 Q988.4639,27.6357 988.4639,29.0137 Q988.4639,30.8896 987.3557,31.8152 Q986.2476,32.7407 984.0063,32.7407 Q983.085,32.7407 982.1594,32.5208 Q981.2339,32.3008 980.3706,31.8691 L980.3706,29.3374 Q981.3501,30.0347 982.2673,30.375 Q983.1846,30.7153 984.0811,30.7153 Q984.9858,30.7153 985.4839,30.3044 Q985.9819,29.8936 985.9819,29.1548 Q985.9819,28.5986 985.6499,28.1794 Q985.3179,27.7603 984.687,27.5195 Z " fill="#33FF33"/><text fill="#33FF33" font-family="Verdana" font-size="14" lengthAdjust="spacing" textLength="71" x="1001.25" y="31.5679">ChatState</text><line style="stroke:#33FF33;stroke-width:1.0;" x1="945.5" x2="1100.5" y1="40" y2="40"/><text fill="#33FF33" font-family="Verdana" font-size="14" lengthAdjust="spacing" textLength="74" x="950.5" y="58.0752">chat: Chat</text><text fill="#33FF33" font-family="Verdana" font-size="14" lengthAdjust="spacing" textLength="69" x="950.5" y="75.0898">scroll: i32</text><text fill="#33FF33" font-family="Verdana" font-size="14" lengthAdjust="spacing" textLength="145" x="950.5" y="92.1045">textbox_text: String</text><line style="stroke:#33FF33;stroke-width:1.0;" x1="945.5" x2="1100.5" y1="99.0439" y2="99.0439"/></g><!--link ErrorState to AppState--><g id="link_ErrorState_AppState"><path codeLine="18" d="M130.14,253.22 C135.77,256.36 141.44,259.37 147,262.09 C234.12,304.74 326.2997,339.0442 401.9997,364.8042 " fill="none" id="ErrorState-to-AppState" style="stroke:#33FF33;stroke-width:1.0;"/><polygon fill="#33FF33" points="413.36,368.67,408.9685,362.9503,401.9997,364.8042,406.3913,370.5239,413.36,368.67" style="stroke:#33FF33;stroke-width:1.0;"/></g><!--link TutorialState to AppState--><g id="link_TutorialState_AppState"><path codeLine="24" d="M271.91,245.41 C309.85,269.55 354.5961,298.0275 402.9961,328.8275 " fill="none" id="TutorialState-to-AppState" style="stroke:#33FF33;stroke-width:1.0;"/><polygon fill="#33FF33" points="413.12,335.27,410.2055,328.6741,402.9961,328.8275,405.9105,335.4234,413.12,335.27" style="stroke:#33FF33;stroke-width:1.0;"/></g><!--link MenuState to AppState--><g id="link_MenuState_AppState"><path codeLine="30" d="M431.48,245.21 C442.99,265.92 453.1174,284.1428 468.2674,311.3828 " fill="none" id="MenuState-to-AppState" style="stroke:#33FF33;stroke-width:1.0;"/><polygon fill="#33FF33" points="474.1,321.87,474.6794,314.6822,468.2674,311.3828,467.688,318.5706,474.1,321.87" style="stroke:#33FF33;stroke-width:1.0;"/></g><!--link SearchState to AppState--><g id="link_SearchState_AppState"><path codeLine="38" d="M597.02,262.29 C587.04,280.25 581.149,290.8308 569.879,311.1108 " fill="none" id="SearchState-to-AppState" style="stroke:#33FF33;stroke-width:1.0;"/><polygon fill="#33FF33" points="564.05,321.6,570.4609,318.2984,569.879,311.1108,563.4681,314.4124,564.05,321.6" style="stroke:#33FF33;stroke-width:1.0;"/></g><!--link InvitesState to AppState--><g id="link_InvitesState_AppState"><path codeLine="45" d="M754.39,253.87 C717.09,277.44 678.4038,301.8888 634.8938,329.3888 " fill="none" id="InvitesState-to-AppState" style="stroke:#33FF33;stroke-width:1.0;"/><polygon fill="#33FF33" points="624.75,335.8,631.959,335.9756,634.8938,329.3888,627.6848,329.2131,624.75,335.8" style="stroke:#33FF33;stroke-width:1.0;"/></g><!--link MessengerState to AppState--><g id="link_MessengerState_AppState"><path codeLine="53" d="M928.72,255.12 C922.74,257.51 916.79,259.85 911,262.09 C814.74,299.31 715.2819,334.7719 636.0919,362.3619 " fill="none" id="MessengerState-to-AppState" style="stroke:#33FF33;stroke-width:1.0;"/><polygon fill="#33FF33" points="624.76,366.31,631.742,368.1133,636.0919,362.3619,629.1099,360.5587,624.76,366.31" style="stroke:#33FF33;stroke-width:1.0;"/></g><!--link ChatState to MessengerState--><g id="link_ChatState_MessengerState"><path codeLine="61" d="M1023,107.27 C1023,126.08 1023,135.74 1023,154.57 " fill="none" id="ChatState-to-MessengerState" style="stroke:#33FF33;stroke-width:1.0;"/><polygon fill="#33FF33" points="1023,166.57,1027,160.57,1023,154.57,1019,160.57,1023,166.57" style="stroke:#33FF33;stroke-width:1.0;"/></g><!--SRC=[TPDDIyGm48Rl_HNnAlIYjo0B8XuyUAfwBTbaw0RIf2HJMId-TvEqcuzIU-am7y_xPfhUuGL68DnYErW0tJGExSoHF4zJXmnXQOX_Hd0Ez02MalTR6CknAlMtH72KlAr1hZXWbbyewU8xvqVGSq3fEUTmHcCbKvHyR56kWRN6Qx-6Lv4L4llH2A3aR8ngVfFxtBZw5z9DYls0s3eBPeTMwY7CvY7IjlTf0mbQsLgv25Si4LNBCIKTUjasf80ZY9wRSJ8QjEV9nuS0IvqLY2HIiLIIxPpDjQziXO85DokV-WB-zEd0dcfjAP9e2JtqNtvZiXnpgaiHDDUXKn2evl_PK7d3DWr-ORZ1NdmOIxjJX9Qi7wuik-a791jM0plyeOKaaSLfJAwAt1gbijJXshrIeaIHtO_p1m00]--></g></svg>