<?xml version="1.0" encoding="us-ascii" standalone="no"?><svg xmlns="http://www.w3.org/2000/svg" xmlns:xlink="http://www.w3.org/1999/xlink" contentStyleType="text/css" height="441px" preserveAspectRatio="none" style="width:1380px;height:441px;background:#282828;" version="1.1" viewBox="0 0 1380 441" width="1380px" zoomAndPan="magnify"><defs/><g><rect fill="#282828" height="441" style="stroke:none;stroke-width:1.0;" width="1380" x="0" y="0"/><!--class Store--><g id="elem_Store"><rect codeLine="3" fill="#282828" height="78.0293" id="Store" rx="2.5" ry="2.5" style="stroke:#33FF33;stroke-width:1.0;" width="192" x="154" y="12"/><ellipse cx="227.25" cy="26" fill="#282828" rx="9" ry="9" style="stroke:#33FF33;stroke-width:1.0;"/><path d="M223.6777,22.2651 L223.6777,20.1069 L231.0571,20.1069 L231.0571,22.2651 L228.5918,22.2651 L228.5918,30.3418 L231.0571,30.3418 L231.0571,32.5 L223.6777,32.5 L223.6777,30.3418 L226.1431,30.3418 L226.1431,22.2651 Z " fill="#33FF33"/><text fill="#33FF33" font-family="Verdana" font-size="14" font-style="italic" lengthAdjust="spacing" textLength="38" x="244.75" y="31.5679">Store</text><line style="stroke:#33FF33;stroke-width:1.0;" x1="155" x2="345" y1="40" y2="40"/><line style="stroke:#33FF33;stroke-width:1.0;" x1="155" x2="345" y1="48" y2="48"/><ellipse cx="165" cy="62.0073" fill="#282828" rx="3" ry="3" style="stroke:#33FF33;stroke-width:1.0;"/><text fill="#33FF33" font-family="Verdana" font-size="14" lengthAdjust="spacing" textLength="168" x="172" y="66.0752">dispatch(action: Action)</text><ellipse cx="165" cy="79.022" fill="#282828" rx="3" ry="3" style="stroke:#33FF33;stroke-width:1.0;"/><text fill="#33FF33" font-family="Verdana" font-size="14" lengthAdjust="spacing" textLength="145" x="172" y="83.0898">select() -&gt; AppState</text></g><!--class Renderer--><g id="elem_Renderer"><rect codeLine="8" fill="#282828" height="61.0146" id="Renderer" rx="2.5" ry="2.5" style="stroke:#33FF33;stroke-width:1.0;" width="194" x="458" y="184.05"/><ellipse cx="519.25" cy="198.05" fill="#282828" rx="9" ry="9" style="stroke:#33FF33;stroke-width:1.0;"/><path d="M515.6777,194.3151 L515.6777,192.1569 L523.0571,192.1569 L523.0571,194.3151 L520.5918,194.3151 L520.5918,202.3918 L523.0571,202.3918 L523.0571,204.55 L515.6777,204.55 L515.6777,202.3918 L518.1431,202.3918 L518.1431,194.3151 Z " fill="#33FF33"/><text fill="#33FF33" font-family="Verdana" font-size="14" font-style="italic" lengthAdjust="spacing" textLength="64" x="536.75" y="203.6179">Renderer</text><line style="stroke:#33FF33;stroke-width:1.0;" x1="459" x2="651" y1="212.05" y2="212.05"/><line style="stroke:#33FF33;stroke-width:1.0;" x1="459" x2="651" y1="220.05" y2="220.05"/><ellipse cx="469" cy="234.0573" fill="#282828" rx="3" ry="3" style="stroke:#33FF33;stroke-width:1.0;"/><text fill="#33FF33" font-family="Verdana" font-size="14" lengthAdjust="spacing" textLength="170" x="476" y="238.1252">render(state: AppState)</text></g><!--class RendererImpl--><g id="elem_RendererImpl"><rect codeLine="12" fill="#282828" height="44" id="RendererImpl" rx="2.5" ry="2.5" style="stroke:#33FF33;stroke-width:1.0;" width="125" x="492.5" y="29.02"/><ellipse cx="505.5" cy="43.02" fill="#282828" rx="9" ry="9" style="stroke:#33FF33;stroke-width:1.0;"/><path d="M505.2334,44.083 Q503.3823,43.3774 502.7266,42.6013 Q502.0708,41.8252 502.0708,40.5137 Q502.0708,38.8286 503.1499,37.8657 Q504.229,36.9028 506.1133,36.9028 Q506.9683,36.9028 507.8232,37.0979 Q508.6782,37.2929 509.5166,37.6748 L509.5166,40.0654 Q508.728,39.5093 507.9146,39.2187 Q507.1011,38.9282 506.3042,38.9282 Q505.416,38.9282 504.9429,39.2851 Q504.4697,39.6421 504.4697,40.3061 Q504.4697,40.8208 504.8142,41.157 Q505.1587,41.4931 506.2544,41.8999 L507.3086,42.2983 Q508.8027,42.8462 509.5083,43.751 Q510.2139,44.6557 510.2139,46.0337 Q510.2139,47.9096 509.1057,48.8352 Q507.9976,49.7607 505.7563,49.7607 Q504.835,49.7607 503.9094,49.5408 Q502.9839,49.3208 502.1206,48.8891 L502.1206,46.3574 Q503.1001,47.0547 504.0173,47.395 Q504.9346,47.7353 505.8311,47.7353 Q506.7358,47.7353 507.2339,47.3244 Q507.7319,46.9136 507.7319,46.1748 Q507.7319,45.6186 507.3999,45.1994 Q507.0679,44.7803 506.437,44.5395 Z " fill="#33FF33"/><text fill="#33FF33" font-family="Verdana" font-size="14" lengthAdjust="spacing" textLength="97" x="517.5" y="48.5879">RendererImpl</text><line style="stroke:#33FF33;stroke-width:1.0;" x1="493.5" x2="616.5" y1="57.02" y2="57.02"/><line style="stroke:#33FF33;stroke-width:1.0;" x1="493.5" x2="616.5" y1="65.02" y2="65.02"/></g><!--class MessengerClient--><g id="elem_MessengerClient"><rect codeLine="16" fill="#282828" height="78.0293" id="MessengerClient" rx="2.5" ry="2.5" style="stroke:#33FF33;stroke-width:1.0;" width="200" x="12" y="347.58"/><ellipse cx="50.75" cy="361.58" fill="#282828" rx="9" ry="9" style="stroke:#33FF33;stroke-width:1.0;"/><path d="M47.1777,357.8451 L47.1777,355.6869 L54.5571,355.6869 L54.5571,357.8451 L52.0918,357.8451 L52.0918,365.9218 L54.5571,365.9218 L54.5571,368.08 L47.1777,368.08 L47.1777,365.9218 L49.6431,365.9218 L49.6431,357.8451 Z " fill="#33FF33"/><text fill="#33FF33" font-family="Verdana" font-size="14" font-style="italic" lengthAdjust="spacing" textLength="115" x="68.25" y="367.1479">MessengerClient</text><line style="stroke:#33FF33;stroke-width:1.0;" x1="13" x2="211" y1="375.58" y2="375.58"/><line style="stroke:#33FF33;stroke-width:1.0;" x1="13" x2="211" y1="383.58" y2="383.58"/><ellipse cx="23" cy="397.5873" fill="#282828" rx="3" ry="3" style="stroke:#33FF33;stroke-width:1.0;"/><text fill="#33FF33" font-family="Verdana" font-size="14" lengthAdjust="spacing" textLength="61" x="30" y="401.6552">receive()</text><ellipse cx="23" cy="414.602" fill="#282828" rx="3" ry="3" style="stroke:#33FF33;stroke-width:1.0;"/><text fill="#33FF33" font-family="Verdana" font-size="14" lengthAdjust="spacing" textLength="176" x="30" y="418.6698">send(message: Message)</text></g><!--class MessengerClientImpl--><g id="elem_MessengerClientImpl"><rect codeLine="20" fill="#282828" height="44" id="MessengerClientImpl" rx="2.5" ry="2.5" style="stroke:#33FF33;stroke-width:1.0;" width="176" x="37" y="192.55"/><ellipse cx="50" cy="206.55" fill="#282828" rx="9" ry="9" style="stroke:#33FF33;stroke-width:1.0;"/><path d="M49.7334,207.613 Q47.8823,206.9074 47.2266,206.1313 Q46.5708,205.3552 46.5708,204.0437 Q46.5708,202.3586 47.6499,201.3957 Q48.729,200.4328 50.6133,200.4328 Q51.4683,200.4328 52.3232,200.6279 Q53.1782,200.8229 54.0166,201.2048 L54.0166,203.5954 Q53.228,203.0393 52.4146,202.7487 Q51.6011,202.4582 50.8042,202.4582 Q49.916,202.4582 49.4429,202.8151 Q48.9697,203.1721 48.9697,203.8361 Q48.9697,204.3508 49.3142,204.687 Q49.6587,205.0231 50.7544,205.4299 L51.8086,205.8283 Q53.3027,206.3762 54.0083,207.281 Q54.7139,208.1857 54.7139,209.5637 Q54.7139,211.4396 53.6057,212.3652 Q52.4976,213.2907 50.2563,213.2907 Q49.335,213.2907 48.4094,213.0708 Q47.4839,212.8508 46.6206,212.4191 L46.6206,209.8874 Q47.6001,210.5847 48.5173,210.925 Q49.4346,211.2653 50.3311,211.2653 Q51.2358,211.2653 51.7339,210.8544 Q52.2319,210.4436 52.2319,209.7048 Q52.2319,209.1486 51.8999,208.7294 Q51.5679,208.3103 50.937,208.0695 Z " fill="#33FF33"/><text fill="#33FF33" font-family="Verdana" font-size="14" lengthAdjust="spacing" textLength="148" x="62" y="212.1179">MessengerClientImpl</text><line style="stroke:#33FF33;stroke-width:1.0;" x1="38" x2="212" y1="220.55" y2="220.55"/><line style="stroke:#33FF33;stroke-width:1.0;" x1="38" x2="212" y1="228.55" y2="228.55"/></g><!--class InvitesClient--><g id="elem_InvitesClient"><rect codeLine="25" fill="#282828" height="95.0439" id="InvitesClient" rx="2.5" ry="2.5" style="stroke:#33FF33;stroke-width:1.0;" width="227" x="247.5" y="339.08"/><ellipse cx="312.75" cy="353.08" fill="#282828" rx="9" ry="9" style="stroke:#33FF33;stroke-width:1.0;"/><path d="M309.1777,349.3451 L309.1777,347.1869 L316.5571,347.1869 L316.5571,349.3451 L314.0918,349.3451 L314.0918,357.4218 L316.5571,357.4218 L316.5571,359.58 L309.1777,359.58 L309.1777,357.4218 L311.6431,357.4218 L311.6431,349.3451 Z " fill="#33FF33"/><text fill="#33FF33" font-family="Verdana" font-size="14" font-style="italic" lengthAdjust="spacing" textLength="89" x="330.25" y="358.6479">InvitesClient</text><line style="stroke:#33FF33;stroke-width:1.0;" x1="248.5" x2="473.5" y1="367.08" y2="367.08"/><line style="stroke:#33FF33;stroke-width:1.0;" x1="248.5" x2="473.5" y1="375.08" y2="375.08"/><ellipse cx="258.5" cy="389.0873" fill="#282828" rx="3" ry="3" style="stroke:#33FF33;stroke-width:1.0;"/><text fill="#33FF33" font-family="Verdana" font-size="14" lengthAdjust="spacing" textLength="146" x="265.5" y="393.1552">create(invite: Invite)</text><ellipse cx="258.5" cy="406.102" fill="#282828" rx="3" ry="3" style="stroke:#33FF33;stroke-width:1.0;"/><text fill="#33FF33" font-family="Verdana" font-size="14" lengthAdjust="spacing" textLength="203" x="265.5" y="410.1698">answer(invite: InviteAnswer)</text><ellipse cx="258.5" cy="423.1166" fill="#282828" rx="3" ry="3" style="stroke:#33FF33;stroke-width:1.0;"/><text fill="#33FF33" font-family="Verdana" font-size="14" lengthAdjust="spacing" textLength="61" x="265.5" y="427.1845">receive()</text></g><!--class InvitesClientImpl--><g id="elem_InvitesClientImpl"><rect codeLine="31" fill="#282828" height="44" id="InvitesClientImpl" rx="2.5" ry="2.5" style="stroke:#33FF33;stroke-width:1.0;" width="150" x="273" y="192.55"/><ellipse cx="286" cy="206.55" fill="#282828" rx="9" ry="9" style="stroke:#33FF33;stroke-width:1.0;"/><path d="M285.7334,207.613 Q283.8823,206.9074 283.2266,206.1313 Q282.5708,205.3552 282.5708,204.0437 Q282.5708,202.3586 283.6499,201.3957 Q284.729,200.4328 286.6133,200.4328 Q287.4683,200.4328 288.3232,200.6279 Q289.1782,200.8229 290.0166,201.2048 L290.0166,203.5954 Q289.228,203.0393 288.4146,202.7487 Q287.6011,202.4582 286.8042,202.4582 Q285.916,202.4582 285.4429,202.8151 Q284.9697,203.1721 284.9697,203.8361 Q284.9697,204.3508 285.3142,204.687 Q285.6587,205.0231 286.7544,205.4299 L287.8086,205.8283 Q289.3027,206.3762 290.0083,207.281 Q290.7139,208.1857 290.7139,209.5637 Q290.7139,211.4396 289.6057,212.3652 Q288.4976,213.2907 286.2563,213.2907 Q285.335,213.2907 284.4094,213.0708 Q283.4839,212.8508 282.6206,212.4191 L282.6206,209.8874 Q283.6001,210.5847 284.5173,210.925 Q285.4346,211.2653 286.3311,211.2653 Q287.2358,211.2653 287.7339,210.8544 Q288.2319,210.4436 288.2319,209.7048 Q288.2319,209.1486 287.8999,208.7294 Q287.5679,208.3103 286.937,208.0695 Z " fill="#33FF33"/><text fill="#33FF33" font-family="Verdana" font-size="14" lengthAdjust="spacing" textLength="122" x="298" y="212.1179">InvitesClientImpl</text><line style="stroke:#33FF33;stroke-width:1.0;" x1="274" x2="422" y1="220.55" y2="220.55"/><line style="stroke:#33FF33;stroke-width:1.0;" x1="274" x2="422" y1="228.55" y2="228.55"/></g><!--class UsersClient--><g id="elem_UsersClient"><rect codeLine="36" fill="#282828" height="61.0146" id="UsersClient" rx="2.5" ry="2.5" style="stroke:#33FF33;stroke-width:1.0;" width="375" x="686.5" y="184.05"/><ellipse cx="830.75" cy="198.05" fill="#282828" rx="9" ry="9" style="stroke:#33FF33;stroke-width:1.0;"/><path d="M827.1777,194.3151 L827.1777,192.1569 L834.5571,192.1569 L834.5571,194.3151 L832.0918,194.3151 L832.0918,202.3918 L834.5571,202.3918 L834.5571,204.55 L827.1777,204.55 L827.1777,202.3918 L829.6431,202.3918 L829.6431,194.3151 Z " fill="#33FF33"/><text fill="#33FF33" font-family="Verdana" font-size="14" font-style="italic" lengthAdjust="spacing" textLength="79" x="848.25" y="203.6179">UsersClient</text><line style="stroke:#33FF33;stroke-width:1.0;" x1="687.5" x2="1060.5" y1="212.05" y2="212.05"/><line style="stroke:#33FF33;stroke-width:1.0;" x1="687.5" x2="1060.5" y1="220.05" y2="220.05"/><ellipse cx="697.5" cy="234.0573" fill="#282828" rx="3" ry="3" style="stroke:#33FF33;stroke-width:1.0;"/><text fill="#33FF33" font-family="Verdana" font-size="14" lengthAdjust="spacing" textLength="351" x="704.5" y="238.1252">searchUsers(query: SearchCriteria) -&gt; Vec&lt;User&gt;</text></g><!--class UsersClientImpl--><g id="elem_UsersClientImpl"><rect codeLine="40" fill="#282828" height="44" id="UsersClientImpl" rx="2.5" ry="2.5" style="stroke:#33FF33;stroke-width:1.0;" width="140" x="804" y="29.02"/><ellipse cx="817" cy="43.02" fill="#282828" rx="9" ry="9" style="stroke:#33FF33;stroke-width:1.0;"/><path d="M816.7334,44.083 Q814.8823,43.3774 814.2266,42.6013 Q813.5708,41.8252 813.5708,40.5137 Q813.5708,38.8286 814.6499,37.8657 Q815.729,36.9028 817.6133,36.9028 Q818.4683,36.9028 819.3232,37.0979 Q820.1782,37.2929 821.0166,37.6748 L821.0166,40.0654 Q820.228,39.5093 819.4146,39.2187 Q818.6011,38.9282 817.8042,38.9282 Q816.916,38.9282 816.4429,39.2851 Q815.9697,39.6421 815.9697,40.3061 Q815.9697,40.8208 816.3142,41.157 Q816.6587,41.4931 817.7544,41.8999 L818.8086,42.2983 Q820.3027,42.8462 821.0083,43.751 Q821.7139,44.6557 821.7139,46.0337 Q821.7139,47.9096 820.6057,48.8352 Q819.4976,49.7607 817.2563,49.7607 Q816.335,49.7607 815.4094,49.5408 Q814.4839,49.3208 813.6206,48.8891 L813.6206,46.3574 Q814.6001,47.0547 815.5173,47.395 Q816.4346,47.7353 817.3311,47.7353 Q818.2358,47.7353 818.7339,47.3244 Q819.2319,46.9136 819.2319,46.1748 Q819.2319,45.6186 818.8999,45.1994 Q818.5679,44.7803 817.937,44.5395 Z " fill="#33FF33"/><text fill="#33FF33" font-family="Verdana" font-size="14" lengthAdjust="spacing" textLength="112" x="829" y="48.5879">UsersClientImpl</text><line style="stroke:#33FF33;stroke-width:1.0;" x1="805" x2="943" y1="57.02" y2="57.02"/><line style="stroke:#33FF33;stroke-width:1.0;" x1="805" x2="943" y1="65.02" y2="65.02"/></g><!--class ChatsClient--><g id="elem_ChatsClient"><rect codeLine="44" fill="#282828" height="95.0439" id="ChatsClient" rx="2.5" ry="2.5" style="stroke:#33FF33;stroke-width:1.0;" width="277" x="1096.5" y="167.03"/><ellipse cx="1190.75" cy="181.03" fill="#282828" rx="9" ry="9" style="stroke:#33FF33;stroke-width:1.0;"/><path d="M1187.1777,177.2951 L1187.1777,175.1369 L1194.5571,175.1369 L1194.5571,177.2951 L1192.0918,177.2951 L1192.0918,185.3718 L1194.5571,185.3718 L1194.5571,187.53 L1187.1777,187.53 L1187.1777,185.3718 L1189.6431,185.3718 L1189.6431,177.2951 Z " fill="#33FF33"/><text fill="#33FF33" font-family="Verdana" font-size="14" font-style="italic" lengthAdjust="spacing" textLength="81" x="1208.25" y="186.5979">ChatsClient</text><line style="stroke:#33FF33;stroke-width:1.0;" x1="1097.5" x2="1372.5" y1="195.03" y2="195.03"/><line style="stroke:#33FF33;stroke-width:1.0;" x1="1097.5" x2="1372.5" y1="203.03" y2="203.03"/><ellipse cx="1107.5" cy="217.0373" fill="#282828" rx="3" ry="3" style="stroke:#33FF33;stroke-width:1.0;"/><text fill="#33FF33" font-family="Verdana" font-size="14" lengthAdjust="spacing" textLength="213" x="1114.5" y="221.1052">getUserChats() -&gt; Vec&lt;Chat&gt;</text><ellipse cx="1107.5" cy="234.052" fill="#282828" rx="3" ry="3" style="stroke:#33FF33;stroke-width:1.0;"/><text fill="#33FF33" font-family="Verdana" font-size="14" lengthAdjust="spacing" textLength="174" x="1114.5" y="238.1198">getChat(id: i32) -&gt; Chat</text><ellipse cx="1107.5" cy="251.0666" fill="#282828" rx="3" ry="3" style="stroke:#33FF33;stroke-width:1.0;"/><text fill="#33FF33" font-family="Verdana" font-size="14" lengthAdjust="spacing" textLength="253" x="1114.5" y="255.1345">createChat(name: String) -&gt; Result</text></g><!--class ChatsClientImpl--><g id="elem_ChatsClientImpl"><rect codeLine="50" fill="#282828" height="44" id="ChatsClientImpl" rx="2.5" ry="2.5" style="stroke:#33FF33;stroke-width:1.0;" width="142" x="1164" y="29.02"/><ellipse cx="1177" cy="43.02" fill="#282828" rx="9" ry="9" style="stroke:#33FF33;stroke-width:1.0;"/><path d="M1176.7334,44.083 Q1174.8823,43.3774 1174.2266,42.6013 Q1173.5708,41.8252 1173.5708,40.5137 Q1173.5708,38.8286 1174.6499,37.8657 Q1175.729,36.9028 1177.6133,36.9028 Q1178.4683,36.9028 1179.3232,37.0979 Q1180.1782,37.2929 1181.0166,37.6748 L1181.0166,40.0654 Q1180.228,39.5093 1179.4146,39.2187 Q1178.6011,38.9282 1177.8042,38.9282 Q1176.916,38.9282 1176.4429,39.2851 Q1175.9697,39.6421 1175.9697,40.3061 Q1175.9697,40.8208 1176.3142,41.157 Q1176.6587,41.4931 1177.7544,41.8999 L1178.8086,42.2983 Q1180.3027,42.8462 1181.0083,43.751 Q1181.7139,44.6557 1181.7139,46.0337 Q1181.7139,47.9096 1180.6057,48.8352 Q1179.4976,49.7607 1177.2563,49.7607 Q1176.335,49.7607 1175.4094,49.5408 Q1174.4839,49.3208 1173.6206,48.8891 L1173.6206,46.3574 Q1174.6001,47.0547 1175.5173,47.395 Q1176.4346,47.7353 1177.3311,47.7353 Q1178.2358,47.7353 1178.7339,47.3244 Q1179.2319,46.9136 1179.2319,46.1748 Q1179.2319,45.6186 1178.8999,45.1994 Q1178.5679,44.7803 1177.937,44.5395 Z " fill="#33FF33"/><text fill="#33FF33" font-family="Verdana" font-size="14" lengthAdjust="spacing" textLength="114" x="1189" y="48.5879">ChatsClientImpl</text><line style="stroke:#33FF33;stroke-width:1.0;" x1="1165" x2="1305" y1="57.02" y2="57.02"/><line style="stroke:#33FF33;stroke-width:1.0;" x1="1165" x2="1305" y1="65.02" y2="65.02"/></g><!--link RendererImpl to Renderer--><g id="link_RendererImpl_Renderer"><path codeLine="14" d="M555,73.47 C555,101.79 555,133.8 555,165.77 " fill="none" id="RendererImpl-to-Renderer" style="stroke:#33FF33;stroke-width:1.0;"/><polygon fill="none" points="555,183.77,561,165.77,549,165.77,555,183.77" style="stroke:#33FF33;stroke-width:1.0;"/><text fill="#33FF33" font-family="Verdana" font-size="13" lengthAdjust="spacing" textLength="78" x="556" y="134.0998">implements</text></g><!--link MessengerClientImpl to MessengerClient--><g id="link_MessengerClientImpl_MessengerClient"><path codeLine="22" d="M123.38,236.75 C121.27,264.35 118.9109,295.1423 116.3009,329.3123 " fill="none" id="MessengerClientImpl-to-MessengerClient" style="stroke:#33FF33;stroke-width:1.0;"/><polygon fill="none" points="114.93,347.26,122.2835,329.7692,110.3183,328.8553,114.93,347.26" style="stroke:#33FF33;stroke-width:1.0;"/><text fill="#33FF33" font-family="Verdana" font-size="13" lengthAdjust="spacing" textLength="78" x="120" y="306.1498">implements</text></g><!--link Store to MessengerClientImpl--><g id="link_Store_MessengerClientImpl"><path codeLine="23" d="M220.38,90.3 C195.69,122.21 168.7729,156.9889 148.7429,182.8789 " fill="none" id="Store-to-MessengerClientImpl" style="stroke:#33FF33;stroke-width:1.0;"/><polygon fill="none" points="141.4,192.37,148.2352,190.0721,148.7429,182.8789,141.9077,185.1768,141.4,192.37" style="stroke:#33FF33;stroke-width:1.0;"/></g><!--link InvitesClientImpl to InvitesClient--><g id="link_InvitesClientImpl_InvitesClient"><path codeLine="33" d="M349.62,236.75 C351.56,262.12 353.4981,287.4224 356.0481,320.7824 " fill="none" id="InvitesClientImpl-to-InvitesClient" style="stroke:#33FF33;stroke-width:1.0;"/><polygon fill="none" points="357.42,338.73,362.0307,320.3251,350.0656,321.2397,357.42,338.73" style="stroke:#33FF33;stroke-width:1.0;"/><text fill="#33FF33" font-family="Verdana" font-size="13" lengthAdjust="spacing" textLength="78" x="356" y="306.1498">implements</text></g><!--link Store to InvitesClientImpl--><g id="link_Store_InvitesClientImpl"><path codeLine="34" d="M273.22,90.3 C292.58,122.21 313.2148,156.221 328.9248,182.111 " fill="none" id="Store-to-InvitesClientImpl" style="stroke:#33FF33;stroke-width:1.0;"/><polygon fill="none" points="335.15,192.37,335.4571,185.1654,328.9248,182.111,328.6178,189.3155,335.15,192.37" style="stroke:#33FF33;stroke-width:1.0;"/></g><!--link UsersClientImpl to UsersClient--><g id="link_UsersClientImpl_UsersClient"><path codeLine="42" d="M874,73.47 C874,101.79 874,133.8 874,165.77 " fill="none" id="UsersClientImpl-to-UsersClient" style="stroke:#33FF33;stroke-width:1.0;"/><polygon fill="none" points="874,183.77,880,165.77,868,165.77,874,183.77" style="stroke:#33FF33;stroke-width:1.0;"/><text fill="#33FF33" font-family="Verdana" font-size="13" lengthAdjust="spacing" textLength="78" x="875" y="134.0998">implements</text></g><!--link ChatsClientImpl to ChatsClient--><g id="link_ChatsClientImpl_ChatsClient"><path codeLine="52" d="M1235,73.47 C1235,97.16 1235,118.01 1235,148.8 " fill="none" id="ChatsClientImpl-to-ChatsClient" style="stroke:#33FF33;stroke-width:1.0;"/><polygon fill="none" points="1235,166.8,1241,148.8,1229,148.8,1235,166.8" style="stroke:#33FF33;stroke-width:1.0;"/><text fill="#33FF33" font-family="Verdana" font-size="13" lengthAdjust="spacing" textLength="78" x="1236" y="134.0998">implements</text></g><!--SRC=[TL8zRuCm4Dtv5UvcLB6q6wgG45E6B47jRfahM0A7d2-fghR_lVuWmH320dxtxjrxPvweWm6OHCfQ1D19eZG1VWe9hAOZma_2xFFC6cL6GRBZGf8wwfoL_frEPGCzIE8fomfMZcDDWY3vYzKEe1j0G7PLH0zmuwZvhIbrNORmBEdMiXl6FadY4ykotsAMp9coe0sYoSGpzs0Cw1QmwfMjHQCbg0lmsRrk-639ehLMzk73EPcCh7I2dmqms5fFNRZpIxMyuxRex7sdBuh0XEBLk4ImE-BAr_A9SqqXjFco2rqMIm-cTy7dBIy61HTtK0YsW1_5sf2RGxqRm5Ka0m9bvmlyT0RypbdjeGgj3YhX_waFa6-EKqJ68x4mPmK4qn7uy3-fEa4hMosGw_GLVhFWZiNCS4Uk6Ylx-k8v3bXSbMTeCTZxg0cLRZtj0ERSKnGbCX2Yh80G9GANKVu1]--></g></svg>