<?xml version="1.0" encoding="us-ascii" standalone="no"?><svg xmlns="http://www.w3.org/2000/svg" xmlns:xlink="http://www.w3.org/1999/xlink" contentStyleType="text/css" height="1245px" preserveAspectRatio="none" style="width:955px;height:1245px;background:#282828;" version="1.1" viewBox="0 0 955 1245" width="955px" zoomAndPan="magnify"><defs/><g><rect fill="#282828" height="1245" style="stroke:none;stroke-width:1.0;" width="955" x="0" y="0"/><!--class Action--><g id="elem_Action"><rect codeLine="3" fill="#282828" height="673.542" id="Action" rx="2.5" ry="2.5" style="stroke:#33FF33;stroke-width:1.0;" width="301" x="12" y="12"/><ellipse cx="136.75" cy="26" fill="#282828" rx="9" ry="9" style="stroke:#33FF33;stroke-width:1.0;"/><path d="M140.3643,32.5 L132.6445,32.5 L132.6445,20.1069 L140.3643,20.1069 L140.3643,22.2651 L135.0933,22.2651 L135.0933,24.938 L139.8662,24.938 L139.8662,27.0962 L135.0933,27.0962 L135.0933,30.3418 L140.3643,30.3418 Z " fill="#33FF33"/><text fill="#33FF33" font-family="Verdana" font-size="14" lengthAdjust="spacing" textLength="44" x="154.25" y="31.5679">Action</text><line style="stroke:#33FF33;stroke-width:1.0;" x1="13" x2="312" y1="40" y2="40"/><text fill="#33FF33" font-family="Verdana" font-size="14" lengthAdjust="spacing" textLength="267" x="18" y="58.0752">KeyPress{key_press: KeyPressAction}</text><text fill="#33FF33" font-family="Verdana" font-size="14" lengthAdjust="spacing" textLength="5" x="18" y="75.0898">&#160;</text><text fill="#33FF33" font-family="Verdana" font-size="14" lengthAdjust="spacing" textLength="73" x="18" y="92.1045">LoadChats</text><text fill="#33FF33" font-family="Verdana" font-size="14" lengthAdjust="spacing" textLength="289" x="18" y="109.1191">LoadChatsSuccesses{chats: Vec&lt;Chat&gt;}</text><text fill="#33FF33" font-family="Verdana" font-size="14" lengthAdjust="spacing" textLength="181" x="18" y="126.1338">LoadChatsFail{err: Error}</text><text fill="#33FF33" font-family="Verdana" font-size="14" lengthAdjust="spacing" textLength="5" x="18" y="143.1484">&#160;</text><text fill="#33FF33" font-family="Verdana" font-size="14" lengthAdjust="spacing" textLength="66" x="18" y="160.1631">LoadChat</text><text fill="#33FF33" font-family="Verdana" font-size="14" lengthAdjust="spacing" textLength="228" x="18" y="177.1777">LoadChatSuccesses{chat: Chat}</text><text fill="#33FF33" font-family="Verdana" font-size="14" lengthAdjust="spacing" textLength="174" x="18" y="194.1924">LoadChatFail{err: Error}</text><text fill="#33FF33" font-family="Verdana" font-size="14" lengthAdjust="spacing" textLength="5" x="18" y="211.207">&#160;</text><text fill="#33FF33" font-family="Verdana" font-size="14" lengthAdjust="spacing" textLength="71" x="18" y="228.2217">LoadUsers</text><text fill="#33FF33" font-family="Verdana" font-size="14" lengthAdjust="spacing" textLength="285" x="18" y="245.2363">LoadUsersSuccesses{users: Vec&lt;User&gt;}</text><text fill="#33FF33" font-family="Verdana" font-size="14" lengthAdjust="spacing" textLength="179" x="18" y="262.251">LoadUsersFail{err: Error}</text><text fill="#33FF33" font-family="Verdana" font-size="14" lengthAdjust="spacing" textLength="5" x="18" y="279.2656">&#160;</text><text fill="#33FF33" font-family="Verdana" font-size="14" lengthAdjust="spacing" textLength="64" x="18" y="296.2803">LoadUser</text><text fill="#33FF33" font-family="Verdana" font-size="14" lengthAdjust="spacing" textLength="224" x="18" y="313.2949">LoadUserSuccesses{user: User}</text><text fill="#33FF33" font-family="Verdana" font-size="14" lengthAdjust="spacing" textLength="172" x="18" y="330.3096">LoadUserFail{err: Error}</text><text fill="#33FF33" font-family="Verdana" font-size="14" lengthAdjust="spacing" textLength="5" x="18" y="347.3242">&#160;</text><text fill="#33FF33" font-family="Verdana" font-size="14" lengthAdjust="spacing" textLength="191" x="18" y="364.3389">CreateChat{name: String}</text><text fill="#33FF33" font-family="Verdana" font-size="14" lengthAdjust="spacing" textLength="213" x="18" y="381.3535">CreateChatSuccesses{id: i32}</text><text fill="#33FF33" font-family="Verdana" font-size="14" lengthAdjust="spacing" textLength="187" x="18" y="398.3682">CreateChatFail{err: Error}</text><text fill="#33FF33" font-family="Verdana" font-size="14" lengthAdjust="spacing" textLength="5" x="18" y="415.3828">&#160;</text><text fill="#33FF33" font-family="Verdana" font-size="14" lengthAdjust="spacing" textLength="196" x="18" y="432.3975">CreateInvite{invite: Invite}</text><text fill="#33FF33" font-family="Verdana" font-size="14" lengthAdjust="spacing" textLength="157" x="18" y="449.4121">CreateInviteSuccesses</text><text fill="#33FF33" font-family="Verdana" font-size="14" lengthAdjust="spacing" textLength="195" x="18" y="466.4268">CreateInviteFail{err: Error}</text><text fill="#33FF33" font-family="Verdana" font-size="14" lengthAdjust="spacing" textLength="5" x="18" y="483.4414">&#160;</text><text fill="#33FF33" font-family="Verdana" font-size="14" lengthAdjust="spacing" textLength="262" x="18" y="500.4561">AnswerInvite{answer: InviteAnswer}</text><text fill="#33FF33" font-family="Verdana" font-size="14" lengthAdjust="spacing" textLength="271" x="18" y="517.4707">AnswerInviteSuccesses{invite: Invite}</text><text fill="#33FF33" font-family="Verdana" font-size="14" lengthAdjust="spacing" textLength="200" x="18" y="534.4854">AnswerInviteFail{err: Error}</text><text fill="#33FF33" font-family="Verdana" font-size="14" lengthAdjust="spacing" textLength="5" x="18" y="551.5">&#160;</text><text fill="#33FF33" font-family="Verdana" font-size="14" lengthAdjust="spacing" textLength="203" x="18" y="568.5146">ReceiveInvite{invite: Invite}</text><text fill="#33FF33" font-family="Verdana" font-size="14" lengthAdjust="spacing" textLength="5" x="18" y="585.5293">&#160;</text><text fill="#33FF33" font-family="Verdana" font-size="14" lengthAdjust="spacing" textLength="244" x="18" y="602.5439">SendMessage{message: Message}</text><text fill="#33FF33" font-family="Verdana" font-size="14" lengthAdjust="spacing" textLength="165" x="18" y="619.5586">SendMessageSuccesses</text><text fill="#33FF33" font-family="Verdana" font-size="14" lengthAdjust="spacing" textLength="203" x="18" y="636.5732">SendMessageFail{err: Error}</text><text fill="#33FF33" font-family="Verdana" font-size="14" lengthAdjust="spacing" textLength="5" x="18" y="653.5879">&#160;</text><text fill="#33FF33" font-family="Verdana" font-size="14" lengthAdjust="spacing" textLength="261" x="18" y="670.6025">ReceiveMessage{message: Message}</text><line style="stroke:#33FF33;stroke-width:1.0;" x1="13" x2="312" y1="677.542" y2="677.542"/></g><!--class Store--><g id="elem_Store"><rect codeLine="43" fill="#282828" height="78.0293" id="Store" rx="2.5" ry="2.5" style="stroke:#33FF33;stroke-width:1.0;" width="192" x="553.5" y="1160.59"/><ellipse cx="626.75" cy="1174.59" fill="#282828" rx="9" ry="9" style="stroke:#33FF33;stroke-width:1.0;"/><path d="M623.1777,1170.8551 L623.1777,1168.6969 L630.5571,1168.6969 L630.5571,1170.8551 L628.0918,1170.8551 L628.0918,1178.9318 L630.5571,1178.9318 L630.5571,1181.09 L623.1777,1181.09 L623.1777,1178.9318 L625.6431,1178.9318 L625.6431,1170.8551 Z " fill="#33FF33"/><text fill="#33FF33" font-family="Verdana" font-size="14" font-style="italic" lengthAdjust="spacing" textLength="38" x="644.25" y="1180.1579">Store</text><line style="stroke:#33FF33;stroke-width:1.0;" x1="554.5" x2="744.5" y1="1188.59" y2="1188.59"/><line style="stroke:#33FF33;stroke-width:1.0;" x1="554.5" x2="744.5" y1="1196.59" y2="1196.59"/><ellipse cx="564.5" cy="1210.5973" fill="#282828" rx="3" ry="3" style="stroke:#33FF33;stroke-width:1.0;"/><text fill="#33FF33" font-family="Verdana" font-size="14" lengthAdjust="spacing" textLength="168" x="571.5" y="1214.6652">dispatch(action: Action)</text><ellipse cx="564.5" cy="1227.612" fill="#282828" rx="3" ry="3" style="stroke:#33FF33;stroke-width:1.0;"/><text fill="#33FF33" font-family="Verdana" font-size="14" lengthAdjust="spacing" textLength="145" x="571.5" y="1231.6798">select() -&gt; AppState</text></g><!--class StoreImpl--><g id="elem_StoreImpl"><rect codeLine="48" fill="#282828" height="44" id="StoreImpl" rx="2.5" ry="2.5" style="stroke:#33FF33;stroke-width:1.0;" width="99" x="600" y="1039.59"/><ellipse cx="613" cy="1053.59" fill="#282828" rx="9" ry="9" style="stroke:#33FF33;stroke-width:1.0;"/><path d="M612.7334,1054.653 Q610.8823,1053.9474 610.2266,1053.1713 Q609.5708,1052.3952 609.5708,1051.0837 Q609.5708,1049.3986 610.6499,1048.4357 Q611.729,1047.4728 613.6133,1047.4728 Q614.4683,1047.4728 615.3232,1047.6679 Q616.1782,1047.8629 617.0166,1048.2448 L617.0166,1050.6354 Q616.228,1050.0793 615.4146,1049.7887 Q614.6011,1049.4982 613.8042,1049.4982 Q612.916,1049.4982 612.4429,1049.8551 Q611.9697,1050.2121 611.9697,1050.8761 Q611.9697,1051.3908 612.3142,1051.727 Q612.6587,1052.0631 613.7544,1052.4699 L614.8086,1052.8683 Q616.3027,1053.4162 617.0083,1054.321 Q617.7139,1055.2257 617.7139,1056.6037 Q617.7139,1058.4796 616.6057,1059.4052 Q615.4976,1060.3307 613.2563,1060.3307 Q612.335,1060.3307 611.4094,1060.1108 Q610.4839,1059.8908 609.6206,1059.4591 L609.6206,1056.9274 Q610.6001,1057.6247 611.5173,1057.965 Q612.4346,1058.3053 613.3311,1058.3053 Q614.2358,1058.3053 614.7339,1057.8944 Q615.2319,1057.4836 615.2319,1056.7448 Q615.2319,1056.1886 614.8999,1055.7694 Q614.5679,1055.3503 613.937,1055.1095 Z " fill="#33FF33"/><text fill="#33FF33" font-family="Verdana" font-size="14" lengthAdjust="spacing" textLength="71" x="625" y="1059.1579">StoreImpl</text><line style="stroke:#33FF33;stroke-width:1.0;" x1="601" x2="698" y1="1067.59" y2="1067.59"/><line style="stroke:#33FF33;stroke-width:1.0;" x1="601" x2="698" y1="1075.59" y2="1075.59"/></g><!--class Reducer--><g id="elem_Reducer"><rect codeLine="52" fill="#282828" height="78.0293" id="Reducer" rx="2.5" ry="2.5" style="stroke:#33FF33;stroke-width:1.0;" width="395" x="553" y="762.55"/><ellipse cx="718.25" cy="776.55" fill="#282828" rx="9" ry="9" style="stroke:#33FF33;stroke-width:1.0;"/><path d="M714.6777,772.8151 L714.6777,770.6569 L722.0571,770.6569 L722.0571,772.8151 L719.5918,772.8151 L719.5918,780.8918 L722.0571,780.8918 L722.0571,783.05 L714.6777,783.05 L714.6777,780.8918 L717.1431,780.8918 L717.1431,772.8151 Z " fill="#33FF33"/><text fill="#33FF33" font-family="Verdana" font-size="14" font-style="italic" lengthAdjust="spacing" textLength="57" x="735.75" y="782.1179">Reducer</text><line style="stroke:#33FF33;stroke-width:1.0;" x1="554" x2="947" y1="790.55" y2="790.55"/><line style="stroke:#33FF33;stroke-width:1.0;" x1="554" x2="947" y1="798.55" y2="798.55"/><ellipse cx="564" cy="812.5573" fill="#282828" rx="3" ry="3" style="stroke:#33FF33;stroke-width:1.0;"/><text fill="#33FF33" font-family="Verdana" font-size="14" lengthAdjust="spacing" textLength="295" x="571" y="816.6252">condition(action: Action, state: AppState)</text><ellipse cx="564" cy="829.572" fill="#282828" rx="3" ry="3" style="stroke:#33FF33;stroke-width:1.0;"/><text fill="#33FF33" font-family="Verdana" font-size="14" lengthAdjust="spacing" textLength="371" x="571" y="833.6398">reduce(action: Action, state: AppState) -&gt; AppState</text></g><!--class ReducerVecFactory--><g id="elem_ReducerVecFactory"><rect codeLine="57" fill="#282828" height="61.0146" id="ReducerVecFactory" rx="2.5" ry="2.5" style="stroke:#33FF33;stroke-width:1.0;" width="210" x="444.5" y="917.58"/><ellipse cx="479.55" cy="931.58" fill="#282828" rx="9" ry="9" style="stroke:#33FF33;stroke-width:1.0;"/><path d="M475.9777,927.8451 L475.9777,925.6869 L483.3571,925.6869 L483.3571,927.8451 L480.8918,927.8451 L480.8918,935.9218 L483.3571,935.9218 L483.3571,938.08 L475.9777,938.08 L475.9777,935.9218 L478.4431,935.9218 L478.4431,927.8451 Z " fill="#33FF33"/><text fill="#33FF33" font-family="Verdana" font-size="14" font-style="italic" lengthAdjust="spacing" textLength="133" x="496.45" y="937.1479">ReducerVecFactory</text><line style="stroke:#33FF33;stroke-width:1.0;" x1="445.5" x2="653.5" y1="945.58" y2="945.58"/><line style="stroke:#33FF33;stroke-width:1.0;" x1="445.5" x2="653.5" y1="953.58" y2="953.58"/><ellipse cx="455.5" cy="967.5873" fill="#282828" rx="3" ry="3" style="stroke:#33FF33;stroke-width:1.0;"/><text fill="#33FF33" font-family="Verdana" font-size="14" lengthAdjust="spacing" textLength="186" x="462.5" y="971.6552">create() -&gt; Vec&lt;Reducer&gt;</text></g><!--class ReducerVecFactoryImpl--><g id="elem_ReducerVecFactoryImpl"><rect codeLine="61" fill="#282828" height="44" id="ReducerVecFactoryImpl" rx="2.5" ry="2.5" style="stroke:#33FF33;stroke-width:1.0;" width="194" x="324.5" y="779.56"/><ellipse cx="337.5" cy="793.56" fill="#282828" rx="9" ry="9" style="stroke:#33FF33;stroke-width:1.0;"/><path d="M337.2334,794.623 Q335.3823,793.9174 334.7266,793.1413 Q334.0708,792.3652 334.0708,791.0537 Q334.0708,789.3686 335.1499,788.4057 Q336.229,787.4428 338.1133,787.4428 Q338.9683,787.4428 339.8232,787.6379 Q340.6782,787.8329 341.5166,788.2148 L341.5166,790.6054 Q340.728,790.0493 339.9146,789.7587 Q339.1011,789.4682 338.3042,789.4682 Q337.416,789.4682 336.9429,789.8251 Q336.4697,790.1821 336.4697,790.8461 Q336.4697,791.3608 336.8142,791.697 Q337.1587,792.0331 338.2544,792.4399 L339.3086,792.8383 Q340.8027,793.3862 341.5083,794.291 Q342.2139,795.1957 342.2139,796.5737 Q342.2139,798.4496 341.1057,799.3752 Q339.9976,800.3007 337.7563,800.3007 Q336.835,800.3007 335.9094,800.0808 Q334.9839,799.8608 334.1206,799.4291 L334.1206,796.8974 Q335.1001,797.5947 336.0173,797.935 Q336.9346,798.2753 337.8311,798.2753 Q338.7358,798.2753 339.2339,797.8644 Q339.7319,797.4536 339.7319,796.7148 Q339.7319,796.1586 339.3999,795.7394 Q339.0679,795.3203 338.437,795.0795 Z " fill="#33FF33"/><text fill="#33FF33" font-family="Verdana" font-size="14" lengthAdjust="spacing" textLength="166" x="349.5" y="799.1279">ReducerVecFactoryImpl</text><line style="stroke:#33FF33;stroke-width:1.0;" x1="325.5" x2="517.5" y1="807.56" y2="807.56"/><line style="stroke:#33FF33;stroke-width:1.0;" x1="325.5" x2="517.5" y1="815.56" y2="815.56"/></g><!--class EditReducer--><g id="elem_EditReducer"><rect codeLine="69" fill="#282828" height="44" id="EditReducer" rx="2.5" ry="2.5" style="stroke:#33FF33;stroke-width:1.0;" width="113" x="348" y="326.78"/><ellipse cx="361" cy="340.78" fill="#282828" rx="9" ry="9" style="stroke:#33FF33;stroke-width:1.0;"/><path d="M360.7334,341.843 Q358.8823,341.1374 358.2266,340.3613 Q357.5708,339.5852 357.5708,338.2737 Q357.5708,336.5886 358.6499,335.6257 Q359.729,334.6628 361.6133,334.6628 Q362.4683,334.6628 363.3232,334.8579 Q364.1782,335.0529 365.0166,335.4348 L365.0166,337.8254 Q364.228,337.2693 363.4146,336.9787 Q362.6011,336.6882 361.8042,336.6882 Q360.916,336.6882 360.4429,337.0451 Q359.9697,337.4021 359.9697,338.0661 Q359.9697,338.5808 360.3142,338.917 Q360.6587,339.2531 361.7544,339.6599 L362.8086,340.0583 Q364.3027,340.6062 365.0083,341.511 Q365.7139,342.4157 365.7139,343.7937 Q365.7139,345.6696 364.6057,346.5952 Q363.4976,347.5207 361.2563,347.5207 Q360.335,347.5207 359.4094,347.3008 Q358.4839,347.0808 357.6206,346.6491 L357.6206,344.1174 Q358.6001,344.8147 359.5173,345.155 Q360.4346,345.4953 361.3311,345.4953 Q362.2358,345.4953 362.7339,345.0844 Q363.2319,344.6736 363.2319,343.9348 Q363.2319,343.3786 362.8999,342.9594 Q362.5679,342.5403 361.937,342.2995 Z " fill="#33FF33"/><text fill="#33FF33" font-family="Verdana" font-size="14" lengthAdjust="spacing" textLength="85" x="373" y="346.3479">EditReducer</text><line style="stroke:#33FF33;stroke-width:1.0;" x1="349" x2="460" y1="354.78" y2="354.78"/><line style="stroke:#33FF33;stroke-width:1.0;" x1="349" x2="460" y1="362.78" y2="362.78"/></g><!--class NavigationReducer--><g id="elem_NavigationReducer"><rect codeLine="74" fill="#282828" height="44" id="NavigationReducer" rx="2.5" ry="2.5" style="stroke:#33FF33;stroke-width:1.0;" width="159" x="694" y="326.78"/><ellipse cx="707" cy="340.78" fill="#282828" rx="9" ry="9" style="stroke:#33FF33;stroke-width:1.0;"/><path d="M706.7334,341.843 Q704.8823,341.1374 704.2266,340.3613 Q703.5708,339.5852 703.5708,338.2737 Q703.5708,336.5886 704.6499,335.6257 Q705.729,334.6628 707.6133,334.6628 Q708.4683,334.6628 709.3232,334.8579 Q710.1782,335.0529 711.0166,335.4348 L711.0166,337.8254 Q710.228,337.2693 709.4146,336.9787 Q708.6011,336.6882 707.8042,336.6882 Q706.916,336.6882 706.4429,337.0451 Q705.9697,337.4021 705.9697,338.0661 Q705.9697,338.5808 706.3142,338.917 Q706.6587,339.2531 707.7544,339.6599 L708.8086,340.0583 Q710.3027,340.6062 711.0083,341.511 Q711.7139,342.4157 711.7139,343.7937 Q711.7139,345.6696 710.6057,346.5952 Q709.4976,347.5207 707.2563,347.5207 Q706.335,347.5207 705.4094,347.3008 Q704.4839,347.0808 703.6206,346.6491 L703.6206,344.1174 Q704.6001,344.8147 705.5173,345.155 Q706.4346,345.4953 707.3311,345.4953 Q708.2358,345.4953 708.7339,345.0844 Q709.2319,344.6736 709.2319,343.9348 Q709.2319,343.3786 708.8999,342.9594 Q708.5679,342.5403 707.937,342.2995 Z " fill="#33FF33"/><text fill="#33FF33" font-family="Verdana" font-size="14" lengthAdjust="spacing" textLength="131" x="719" y="346.3479">NavigationReducer</text><line style="stroke:#33FF33;stroke-width:1.0;" x1="695" x2="852" y1="354.78" y2="354.78"/><line style="stroke:#33FF33;stroke-width:1.0;" x1="695" x2="852" y1="362.78" y2="362.78"/></g><!--class LoadChatsReducer--><g id="elem_LoadChatsReducer"><rect codeLine="79" fill="#282828" height="44" id="LoadChatsReducer" rx="2.5" ry="2.5" style="stroke:#33FF33;stroke-width:1.0;" width="158" x="499.5" y="326.78"/><ellipse cx="512.5" cy="340.78" fill="#282828" rx="9" ry="9" style="stroke:#33FF33;stroke-width:1.0;"/><path d="M512.2334,341.843 Q510.3823,341.1374 509.7266,340.3613 Q509.0708,339.5852 509.0708,338.2737 Q509.0708,336.5886 510.1499,335.6257 Q511.229,334.6628 513.1133,334.6628 Q513.9683,334.6628 514.8232,334.8579 Q515.6782,335.0529 516.5166,335.4348 L516.5166,337.8254 Q515.728,337.2693 514.9146,336.9787 Q514.1011,336.6882 513.3042,336.6882 Q512.416,336.6882 511.9429,337.0451 Q511.4697,337.4021 511.4697,338.0661 Q511.4697,338.5808 511.8142,338.917 Q512.1587,339.2531 513.2544,339.6599 L514.3086,340.0583 Q515.8027,340.6062 516.5083,341.511 Q517.2139,342.4157 517.2139,343.7937 Q517.2139,345.6696 516.1057,346.5952 Q514.9976,347.5207 512.7563,347.5207 Q511.835,347.5207 510.9094,347.3008 Q509.9839,347.0808 509.1206,346.6491 L509.1206,344.1174 Q510.1001,344.8147 511.0173,345.155 Q511.9346,345.4953 512.8311,345.4953 Q513.7358,345.4953 514.2339,345.0844 Q514.7319,344.6736 514.7319,343.9348 Q514.7319,343.3786 514.3999,342.9594 Q514.0679,342.5403 513.437,342.2995 Z " fill="#33FF33"/><text fill="#33FF33" font-family="Verdana" font-size="14" lengthAdjust="spacing" textLength="130" x="524.5" y="346.3479">LoadChatsReducer</text><line style="stroke:#33FF33;stroke-width:1.0;" x1="500.5" x2="656.5" y1="354.78" y2="354.78"/><line style="stroke:#33FF33;stroke-width:1.0;" x1="500.5" x2="656.5" y1="362.78" y2="362.78"/></g><!--link StoreImpl to Store--><g id="link_StoreImpl_Store"><path codeLine="50" d="M649.5,1083.84 C649.5,1104.24 649.5,1117.51 649.5,1142.27 " fill="none" id="StoreImpl-to-Store" style="stroke:#33FF33;stroke-width:1.0;"/><polygon fill="none" points="649.5,1160.27,655.5,1142.27,643.5,1142.27,649.5,1160.27" style="stroke:#33FF33;stroke-width:1.0;"/><text fill="#33FF33" font-family="Verdana" font-size="13" lengthAdjust="spacing" textLength="78" x="650.5" y="1127.6598">implements</text></g><!--link ReducerVecFactoryImpl to ReducerVecFactory--><g id="link_ReducerVecFactoryImpl_ReducerVecFactory"><path codeLine="63" d="M440.39,823.89 C462.22,848.54 486.3752,875.8156 511.0252,903.6456 " fill="none" id="ReducerVecFactoryImpl-to-ReducerVecFactory" style="stroke:#33FF33;stroke-width:1.0;"/><polygon fill="none" points="522.96,917.12,515.5167,899.6673,506.5337,907.6238,522.96,917.12" style="stroke:#33FF33;stroke-width:1.0;"/><text fill="#33FF33" font-family="Verdana" font-size="13" lengthAdjust="spacing" textLength="78" x="493.5" y="884.6498">implements</text></g><!--link ReducerVecFactory to StoreImpl--><g id="link_ReducerVecFactory_StoreImpl"><path codeLine="65" d="M576.3,978.97 C593.31,997.93 606.9075,1013.097 622.2275,1030.177 " fill="none" id="ReducerVecFactory-to-StoreImpl" style="stroke:#33FF33;stroke-width:1.0;"/><polygon fill="none" points="630.24,1039.11,629.2114,1031.9726,622.2275,1030.177,623.2561,1037.3143,630.24,1039.11" style="stroke:#33FF33;stroke-width:1.0;"/></g><!--link Reducer to StoreImpl--><g id="link_Reducer_StoreImpl"><path codeLine="67" d="M735.49,840.91 C713.95,895.94 679.3644,984.3057 662.2844,1027.9357 " fill="none" id="Reducer-to-StoreImpl" style="stroke:#33FF33;stroke-width:1.0;"/><polygon fill="none" points="657.91,1039.11,663.822,1034.981,662.2844,1027.9357,656.3725,1032.0647,657.91,1039.11" style="stroke:#33FF33;stroke-width:1.0;"/></g><!--link EditReducer to Reducer--><g id="link_EditReducer_Reducer"><path codeLine="71" d="M403.67,371.19 C402.55,428.45 406.88,587.42 482.5,685.55 C509.47,720.54 532.5874,738.0625 573.2274,755.1525 " fill="none" id="EditReducer-to-Reducer" style="stroke:#33FF33;stroke-width:1.0;"/><polygon fill="none" points="589.82,762.13,575.5533,749.6216,570.9016,760.6833,589.82,762.13" style="stroke:#33FF33;stroke-width:1.0;"/><text fill="#33FF33" font-family="Verdana" font-size="13" lengthAdjust="spacing" textLength="78" x="528.5" y="729.6198">implements</text></g><!--link EditReducer to ReducerVecFactoryImpl--><g id="link_EditReducer_ReducerVecFactoryImpl"><path codeLine="72" d="M405.31,371.21 C408.18,447.24 417.3876,691.4485 420.2476,767.2585 " fill="none" id="EditReducer-to-ReducerVecFactoryImpl" style="stroke:#33FF33;stroke-width:1.0;"/><polygon fill="none" points="420.7,779.25,424.471,773.1035,420.2476,767.2585,416.4766,773.4051,420.7,779.25" style="stroke:#33FF33;stroke-width:1.0;"/></g><!--link NavigationReducer to Reducer--><g id="link_NavigationReducer_Reducer"><path codeLine="76" d="M772.41,371.21 C768.78,442.25 758.0474,652.6234 753.3774,744.1334 " fill="none" id="NavigationReducer-to-Reducer" style="stroke:#33FF33;stroke-width:1.0;"/><polygon fill="none" points="752.46,762.11,759.3696,744.4392,747.3852,743.8276,752.46,762.11" style="stroke:#33FF33;stroke-width:1.0;"/><text fill="#33FF33" font-family="Verdana" font-size="13" lengthAdjust="spacing" textLength="78" x="754.5" y="729.6198">implements</text></g><!--link NavigationReducer to ReducerVecFactoryImpl--><g id="link_NavigationReducer_ReducerVecFactoryImpl"><path codeLine="77" d="M776.87,370.86 C785.85,435.33 803.23,631.54 701.5,732.55 C648.3,785.37 608.14,743.97 535.5,762.55 C517.41,767.17 509.4044,769.3861 491.8544,775.2861 " fill="none" id="NavigationReducer-to-ReducerVecFactoryImpl" style="stroke:#33FF33;stroke-width:1.0;"/><polygon fill="none" points="480.48,779.11,487.4418,780.9895,491.8544,775.2861,484.8926,773.4066,480.48,779.11" style="stroke:#33FF33;stroke-width:1.0;"/></g><!--link LoadChatsReducer to Reducer--><g id="link_LoadChatsReducer_Reducer"><path codeLine="81" d="M578.57,371.1 C579.7,432.25 589.7,611.56 665.5,732.55 C672.42,743.6 668.2629,741.7549 678.2529,750.5249 " fill="none" id="LoadChatsReducer-to-Reducer" style="stroke:#33FF33;stroke-width:1.0;"/><polygon fill="none" points="691.78,762.4,682.2113,746.0159,674.2946,755.0339,691.78,762.4" style="stroke:#33FF33;stroke-width:1.0;"/><text fill="#33FF33" font-family="Verdana" font-size="13" lengthAdjust="spacing" textLength="78" x="666.5" y="729.6198">implements</text></g><!--link LoadChatsReducer to ReducerVecFactoryImpl--><g id="link_LoadChatsReducer_ReducerVecFactoryImpl"><path codeLine="82" d="M573.52,371.02 C560.63,424.71 524.03,569.8 478.5,685.55 C474.81,694.93 453.2555,737.8315 437.7755,768.4415 " fill="none" id="LoadChatsReducer-to-ReducerVecFactoryImpl" style="stroke:#33FF33;stroke-width:1.0;"/><polygon fill="none" points="432.36,779.15,438.6373,775.6009,437.7755,768.4415,431.4982,771.9906,432.36,779.15" style="stroke:#33FF33;stroke-width:1.0;"/></g><!--SRC=[XLJ1RgCm4Btp5TDRgvPBUxDMaQAgbQfjLwj6kzVACjF4sc3GsAIAAF- -DdOeDeHo06RcyTwRWU72xB1446JoBI6gB4FLbB0MHbQgpS0UF_7ucr3hzXyUtsftnuQSntLP3tokU76_uqR7qQOHma9HjyA53FwY-E4ggou6FdAvRv68mGDHHGbh5CIS35mkPZjFzaSZwJZwecjSw2swoiXY3rncZOAOau7BnMppPFU4tA1heLMyH0ORGr9jkwJuHIyB1lBkDWKiiJ-fWpJOolx2m8VT131eJ2hpv6kbFv02EU-34xalTHFOg8qPCsFalEGh2fI7fORwqmPLyM9r-1RRqbyPX4IN8kAsHuL52-VfBKugW_JE1TgtMH7wnRg6GkgQ6x6xvFqUiR1tLw6iSO_2N5v1le9rNM-CdRzZquOQOJpLKrdlisouXJp_NFaAsC_2PknwAxkI8mklM3G2wMH2LAgGJZPnSGFQ2R91-cIB-kU_HQUk9mRiaZrQaegEWvN-4_CDknKCmDMewScpVW2pQJ-CIIaPpBIUvzLuk06GfeEX1pkyWCYoKH29nv8ngZhNKn3unGzoozsC1vb9Qa5i3lkTvF1B7XJJp8BW3FIStdy0]--></g></svg>