<?xml version="1.0" encoding="us-ascii" standalone="no"?><svg xmlns="http://www.w3.org/2000/svg" xmlns:xlink="http://www.w3.org/1999/xlink" contentStyleType="text/css" height="1099px" preserveAspectRatio="none" style="width:2129px;height:1099px;background:#282828;" version="1.1" viewBox="0 0 2129 1099" width="2129px" zoomAndPan="magnify"><defs/><g><rect fill="#282828" height="1099" style="stroke:none;stroke-width:1.0;" width="2129" x="0" y="0"/><!--class CrabMessenger--><g id="elem_CrabMessenger"><rect codeLine="3" fill="#282828" height="180.1172" id="CrabMessenger" rx="2.5" ry="2.5" style="stroke:#33FF33;stroke-width:1.0;" width="431" x="1007.5" y="912.07"/><ellipse cx="1165.75" cy="926.07" fill="#282828" rx="9" ry="9" style="stroke:#33FF33;stroke-width:1.0;"/><path d="M1162.1777,922.3351 L1162.1777,920.1769 L1169.5571,920.1769 L1169.5571,922.3351 L1167.0918,922.3351 L1167.0918,930.4118 L1169.5571,930.4118 L1169.5571,932.57 L1162.1777,932.57 L1162.1777,930.4118 L1164.6431,930.4118 L1164.6431,922.3351 Z " fill="#33FF33"/><text fill="#33FF33" font-family="Verdana" font-size="14" font-style="italic" lengthAdjust="spacing" textLength="107" x="1183.25" y="931.6379">CrabMessenger</text><line style="stroke:#33FF33;stroke-width:1.0;" x1="1008.5" x2="1437.5" y1="940.07" y2="940.07"/><line style="stroke:#33FF33;stroke-width:1.0;" x1="1008.5" x2="1437.5" y1="948.07" y2="948.07"/><ellipse cx="1018.5" cy="962.0773" fill="#282828" rx="3" ry="3" style="stroke:#33FF33;stroke-width:1.0;"/><text fill="#33FF33" font-family="Verdana" font-size="14" lengthAdjust="spacing" textLength="407" x="1025.5" y="966.1452">chat(message: Stream&lt;Message&gt;) -&gt; Stream&lt;Message&gt;</text><ellipse cx="1018.5" cy="979.092" fill="#282828" rx="3" ry="3" style="stroke:#33FF33;stroke-width:1.0;"/><text fill="#33FF33" font-family="Verdana" font-size="14" lengthAdjust="spacing" textLength="213" x="1025.5" y="983.1598">getUserChats() -&gt; Vec&lt;Chat&gt;</text><ellipse cx="1018.5" cy="996.1066" fill="#282828" rx="3" ry="3" style="stroke:#33FF33;stroke-width:1.0;"/><text fill="#33FF33" font-family="Verdana" font-size="14" lengthAdjust="spacing" textLength="213" x="1025.5" y="1000.1745">getChat(chat_id: i32) -&gt; Chat</text><ellipse cx="1018.5" cy="1013.1213" fill="#282828" rx="3" ry="3" style="stroke:#33FF33;stroke-width:1.0;"/><text fill="#33FF33" font-family="Verdana" font-size="14" lengthAdjust="spacing" textLength="253" x="1025.5" y="1017.1891">createChat(name: String) -&gt; Result</text><ellipse cx="1018.5" cy="1030.1359" fill="#282828" rx="3" ry="3" style="stroke:#33FF33;stroke-width:1.0;"/><text fill="#33FF33" font-family="Verdana" font-size="14" lengthAdjust="spacing" textLength="351" x="1025.5" y="1034.2038">searchUsers(query: SearchCriteria) -&gt; Vec&lt;User&gt;</text><ellipse cx="1018.5" cy="1047.1506" fill="#282828" rx="3" ry="3" style="stroke:#33FF33;stroke-width:1.0;"/><text fill="#33FF33" font-family="Verdana" font-size="14" lengthAdjust="spacing" textLength="325" x="1025.5" y="1051.2184">answerInvite(answer: InviteAnswer) -&gt; Result</text><ellipse cx="1018.5" cy="1064.1652" fill="#282828" rx="3" ry="3" style="stroke:#33FF33;stroke-width:1.0;"/><text fill="#33FF33" font-family="Verdana" font-size="14" lengthAdjust="spacing" textLength="258" x="1025.5" y="1068.2331">createInvite(invite: Invite) -&gt; Result</text><ellipse cx="1018.5" cy="1081.1799" fill="#282828" rx="3" ry="3" style="stroke:#33FF33;stroke-width:1.0;"/><text fill="#33FF33" font-family="Verdana" font-size="14" lengthAdjust="spacing" textLength="251" x="1025.5" y="1085.2477">receiveInvites() -&gt; Stream&lt;Invite&gt;</text></g><!--class CrabMessengerImpl--><g id="elem_CrabMessengerImpl"><rect codeLine="14" fill="#282828" height="44" id="CrabMessengerImpl" rx="2.5" ry="2.5" style="stroke:#33FF33;stroke-width:1.0;" width="168" x="1139" y="791.07"/><ellipse cx="1152" cy="805.07" fill="#282828" rx="9" ry="9" style="stroke:#33FF33;stroke-width:1.0;"/><path d="M1151.7334,806.133 Q1149.8823,805.4274 1149.2266,804.6513 Q1148.5708,803.8752 1148.5708,802.5637 Q1148.5708,800.8786 1149.6499,799.9157 Q1150.729,798.9528 1152.6133,798.9528 Q1153.4683,798.9528 1154.3232,799.1479 Q1155.1782,799.3429 1156.0166,799.7248 L1156.0166,802.1154 Q1155.228,801.5593 1154.4146,801.2687 Q1153.6011,800.9782 1152.8042,800.9782 Q1151.916,800.9782 1151.4429,801.3351 Q1150.9697,801.6921 1150.9697,802.3561 Q1150.9697,802.8708 1151.3142,803.207 Q1151.6587,803.5431 1152.7544,803.9499 L1153.8086,804.3483 Q1155.3027,804.8962 1156.0083,805.801 Q1156.7139,806.7057 1156.7139,808.0837 Q1156.7139,809.9596 1155.6057,810.8852 Q1154.4976,811.8107 1152.2563,811.8107 Q1151.335,811.8107 1150.4094,811.5908 Q1149.4839,811.3708 1148.6206,810.9391 L1148.6206,808.4074 Q1149.6001,809.1047 1150.5173,809.445 Q1151.4346,809.7853 1152.3311,809.7853 Q1153.2358,809.7853 1153.7339,809.3744 Q1154.2319,808.9636 1154.2319,808.2248 Q1154.2319,807.6686 1153.8999,807.2494 Q1153.5679,806.8303 1152.937,806.5895 Z " fill="#33FF33"/><text fill="#33FF33" font-family="Verdana" font-size="14" lengthAdjust="spacing" textLength="140" x="1164" y="810.6379">CrabMessengerImpl</text><line style="stroke:#33FF33;stroke-width:1.0;" x1="1140" x2="1306" y1="819.07" y2="819.07"/><line style="stroke:#33FF33;stroke-width:1.0;" x1="1140" x2="1306" y1="827.07" y2="827.07"/></g><!--class Messenger--><g id="elem_Messenger"><rect codeLine="19" fill="#282828" height="61.0146" id="Messenger" rx="2.5" ry="2.5" style="stroke:#33FF33;stroke-width:1.0;" width="431" x="579.5" y="652.04"/><ellipse cx="754.25" cy="666.04" fill="#282828" rx="9" ry="9" style="stroke:#33FF33;stroke-width:1.0;"/><path d="M750.6777,662.3051 L750.6777,660.1469 L758.0571,660.1469 L758.0571,662.3051 L755.5918,662.3051 L755.5918,670.3818 L758.0571,670.3818 L758.0571,672.54 L750.6777,672.54 L750.6777,670.3818 L753.1431,670.3818 L753.1431,662.3051 Z " fill="#33FF33"/><text fill="#33FF33" font-family="Verdana" font-size="14" font-style="italic" lengthAdjust="spacing" textLength="74" x="771.75" y="671.6079">Messenger</text><line style="stroke:#33FF33;stroke-width:1.0;" x1="580.5" x2="1009.5" y1="680.04" y2="680.04"/><line style="stroke:#33FF33;stroke-width:1.0;" x1="580.5" x2="1009.5" y1="688.04" y2="688.04"/><ellipse cx="590.5" cy="702.0473" fill="#282828" rx="3" ry="3" style="stroke:#33FF33;stroke-width:1.0;"/><text fill="#33FF33" font-family="Verdana" font-size="14" lengthAdjust="spacing" textLength="407" x="597.5" y="706.1152">chat(message: Stream&lt;Message&gt;) -&gt; Stream&lt;Message&gt;</text></g><!--class MessengerImpl--><g id="elem_MessengerImpl"><rect codeLine="23" fill="#282828" height="44" id="MessengerImpl" rx="2.5" ry="2.5" style="stroke:#33FF33;stroke-width:1.0;" width="135" x="727.5" y="514.03"/><ellipse cx="740.5" cy="528.03" fill="#282828" rx="9" ry="9" style="stroke:#33FF33;stroke-width:1.0;"/><path d="M740.2334,529.093 Q738.3823,528.3874 737.7266,527.6113 Q737.0708,526.8352 737.0708,525.5237 Q737.0708,523.8386 738.1499,522.8757 Q739.229,521.9128 741.1133,521.9128 Q741.9683,521.9128 742.8232,522.1079 Q743.6782,522.3029 744.5166,522.6848 L744.5166,525.0754 Q743.728,524.5193 742.9146,524.2287 Q742.1011,523.9382 741.3042,523.9382 Q740.416,523.9382 739.9429,524.2951 Q739.4697,524.6521 739.4697,525.3161 Q739.4697,525.8308 739.8142,526.167 Q740.1587,526.5031 741.2544,526.9099 L742.3086,527.3083 Q743.8027,527.8562 744.5083,528.761 Q745.2139,529.6657 745.2139,531.0437 Q745.2139,532.9196 744.1057,533.8452 Q742.9976,534.7707 740.7563,534.7707 Q739.835,534.7707 738.9094,534.5508 Q737.9839,534.3308 737.1206,533.8991 L737.1206,531.3674 Q738.1001,532.0647 739.0173,532.405 Q739.9346,532.7453 740.8311,532.7453 Q741.7358,532.7453 742.2339,532.3344 Q742.7319,531.9236 742.7319,531.1848 Q742.7319,530.6286 742.3999,530.2094 Q742.0679,529.7903 741.437,529.5495 Z " fill="#33FF33"/><text fill="#33FF33" font-family="Verdana" font-size="14" lengthAdjust="spacing" textLength="107" x="752.5" y="533.5979">MessengerImpl</text><line style="stroke:#33FF33;stroke-width:1.0;" x1="728.5" x2="861.5" y1="542.03" y2="542.03"/><line style="stroke:#33FF33;stroke-width:1.0;" x1="728.5" x2="861.5" y1="550.03" y2="550.03"/></g><!--class ChatService--><g id="elem_ChatService"><rect codeLine="30" fill="#282828" height="95.0439" id="ChatService" rx="2.5" ry="2.5" style="stroke:#33FF33;stroke-width:1.0;" width="277" x="1435.5" y="635.03"/><ellipse cx="1528.25" cy="649.03" fill="#282828" rx="9" ry="9" style="stroke:#33FF33;stroke-width:1.0;"/><path d="M1524.6777,645.2951 L1524.6777,643.1369 L1532.0571,643.1369 L1532.0571,645.2951 L1529.5918,645.2951 L1529.5918,653.3718 L1532.0571,653.3718 L1532.0571,655.53 L1524.6777,655.53 L1524.6777,653.3718 L1527.1431,653.3718 L1527.1431,645.2951 Z " fill="#33FF33"/><text fill="#33FF33" font-family="Verdana" font-size="14" font-style="italic" lengthAdjust="spacing" textLength="84" x="1545.75" y="654.5979">ChatService</text><line style="stroke:#33FF33;stroke-width:1.0;" x1="1436.5" x2="1711.5" y1="663.03" y2="663.03"/><line style="stroke:#33FF33;stroke-width:1.0;" x1="1436.5" x2="1711.5" y1="671.03" y2="671.03"/><ellipse cx="1446.5" cy="685.0373" fill="#282828" rx="3" ry="3" style="stroke:#33FF33;stroke-width:1.0;"/><text fill="#33FF33" font-family="Verdana" font-size="14" lengthAdjust="spacing" textLength="213" x="1453.5" y="689.1052">getUserChats() -&gt; Vec&lt;Chat&gt;</text><ellipse cx="1446.5" cy="702.052" fill="#282828" rx="3" ry="3" style="stroke:#33FF33;stroke-width:1.0;"/><text fill="#33FF33" font-family="Verdana" font-size="14" lengthAdjust="spacing" textLength="213" x="1453.5" y="706.1198">getChat(chat_id: i32) -&gt; Chat</text><ellipse cx="1446.5" cy="719.0666" fill="#282828" rx="3" ry="3" style="stroke:#33FF33;stroke-width:1.0;"/><text fill="#33FF33" font-family="Verdana" font-size="14" lengthAdjust="spacing" textLength="253" x="1453.5" y="723.1345">createChat(name: String) -&gt; Result</text></g><!--class ChatServiceImpl--><g id="elem_ChatServiceImpl"><rect codeLine="36" fill="#282828" height="44" id="ChatServiceImpl" rx="2.5" ry="2.5" style="stroke:#33FF33;stroke-width:1.0;" width="145" x="1501.5" y="514.03"/><ellipse cx="1514.5" cy="528.03" fill="#282828" rx="9" ry="9" style="stroke:#33FF33;stroke-width:1.0;"/><path d="M1514.2334,529.093 Q1512.3823,528.3874 1511.7266,527.6113 Q1511.0708,526.8352 1511.0708,525.5237 Q1511.0708,523.8386 1512.1499,522.8757 Q1513.229,521.9128 1515.1133,521.9128 Q1515.9683,521.9128 1516.8232,522.1079 Q1517.6782,522.3029 1518.5166,522.6848 L1518.5166,525.0754 Q1517.728,524.5193 1516.9146,524.2287 Q1516.1011,523.9382 1515.3042,523.9382 Q1514.416,523.9382 1513.9429,524.2951 Q1513.4697,524.6521 1513.4697,525.3161 Q1513.4697,525.8308 1513.8142,526.167 Q1514.1587,526.5031 1515.2544,526.9099 L1516.3086,527.3083 Q1517.8027,527.8562 1518.5083,528.761 Q1519.2139,529.6657 1519.2139,531.0437 Q1519.2139,532.9196 1518.1057,533.8452 Q1516.9976,534.7707 1514.7563,534.7707 Q1513.835,534.7707 1512.9094,534.5508 Q1511.9839,534.3308 1511.1206,533.8991 L1511.1206,531.3674 Q1512.1001,532.0647 1513.0173,532.405 Q1513.9346,532.7453 1514.8311,532.7453 Q1515.7358,532.7453 1516.2339,532.3344 Q1516.7319,531.9236 1516.7319,531.1848 Q1516.7319,530.6286 1516.3999,530.2094 Q1516.0679,529.7903 1515.437,529.5495 Z " fill="#33FF33"/><text fill="#33FF33" font-family="Verdana" font-size="14" lengthAdjust="spacing" textLength="117" x="1526.5" y="533.5979">ChatServiceImpl</text><line style="stroke:#33FF33;stroke-width:1.0;" x1="1502.5" x2="1645.5" y1="542.03" y2="542.03"/><line style="stroke:#33FF33;stroke-width:1.0;" x1="1502.5" x2="1645.5" y1="550.03" y2="550.03"/></g><!--class InviteService--><g id="elem_InviteService"><rect codeLine="42" fill="#282828" height="95.0439" id="InviteService" rx="2.5" ry="2.5" style="stroke:#33FF33;stroke-width:1.0;" width="349" x="195.5" y="635.03"/><ellipse cx="320.25" cy="649.03" fill="#282828" rx="9" ry="9" style="stroke:#33FF33;stroke-width:1.0;"/><path d="M316.6777,645.2951 L316.6777,643.1369 L324.0571,643.1369 L324.0571,645.2951 L321.5918,645.2951 L321.5918,653.3718 L324.0571,653.3718 L324.0571,655.53 L316.6777,655.53 L316.6777,653.3718 L319.1431,653.3718 L319.1431,645.2951 Z " fill="#33FF33"/><text fill="#33FF33" font-family="Verdana" font-size="14" font-style="italic" lengthAdjust="spacing" textLength="92" x="337.75" y="654.5979">InviteService</text><line style="stroke:#33FF33;stroke-width:1.0;" x1="196.5" x2="543.5" y1="663.03" y2="663.03"/><line style="stroke:#33FF33;stroke-width:1.0;" x1="196.5" x2="543.5" y1="671.03" y2="671.03"/><ellipse cx="206.5" cy="685.0373" fill="#282828" rx="3" ry="3" style="stroke:#33FF33;stroke-width:1.0;"/><text fill="#33FF33" font-family="Verdana" font-size="14" lengthAdjust="spacing" textLength="325" x="213.5" y="689.1052">answerInvite(answer: InviteAnswer) -&gt; Result</text><ellipse cx="206.5" cy="702.052" fill="#282828" rx="3" ry="3" style="stroke:#33FF33;stroke-width:1.0;"/><text fill="#33FF33" font-family="Verdana" font-size="14" lengthAdjust="spacing" textLength="258" x="213.5" y="706.1198">createInvite(invite: Invite) -&gt; Result</text><ellipse cx="206.5" cy="719.0666" fill="#282828" rx="3" ry="3" style="stroke:#33FF33;stroke-width:1.0;"/><text fill="#33FF33" font-family="Verdana" font-size="14" lengthAdjust="spacing" textLength="251" x="213.5" y="723.1345">receiveInvites() -&gt; Stream&lt;Invite&gt;</text></g><!--class InviteServiceImpl--><g id="elem_InviteServiceImpl"><rect codeLine="48" fill="#282828" height="44" id="InviteServiceImpl" rx="2.5" ry="2.5" style="stroke:#33FF33;stroke-width:1.0;" width="153" x="311.5" y="514.03"/><ellipse cx="324.5" cy="528.03" fill="#282828" rx="9" ry="9" style="stroke:#33FF33;stroke-width:1.0;"/><path d="M324.2334,529.093 Q322.3823,528.3874 321.7266,527.6113 Q321.0708,526.8352 321.0708,525.5237 Q321.0708,523.8386 322.1499,522.8757 Q323.229,521.9128 325.1133,521.9128 Q325.9683,521.9128 326.8232,522.1079 Q327.6782,522.3029 328.5166,522.6848 L328.5166,525.0754 Q327.728,524.5193 326.9146,524.2287 Q326.1011,523.9382 325.3042,523.9382 Q324.416,523.9382 323.9429,524.2951 Q323.4697,524.6521 323.4697,525.3161 Q323.4697,525.8308 323.8142,526.167 Q324.1587,526.5031 325.2544,526.9099 L326.3086,527.3083 Q327.8027,527.8562 328.5083,528.761 Q329.2139,529.6657 329.2139,531.0437 Q329.2139,532.9196 328.1057,533.8452 Q326.9976,534.7707 324.7563,534.7707 Q323.835,534.7707 322.9094,534.5508 Q321.9839,534.3308 321.1206,533.8991 L321.1206,531.3674 Q322.1001,532.0647 323.0173,532.405 Q323.9346,532.7453 324.8311,532.7453 Q325.7358,532.7453 326.2339,532.3344 Q326.7319,531.9236 326.7319,531.1848 Q326.7319,530.6286 326.3999,530.2094 Q326.0679,529.7903 325.437,529.5495 Z " fill="#33FF33"/><text fill="#33FF33" font-family="Verdana" font-size="14" lengthAdjust="spacing" textLength="125" x="336.5" y="533.5979">InviteServiceImpl</text><line style="stroke:#33FF33;stroke-width:1.0;" x1="312.5" x2="463.5" y1="542.03" y2="542.03"/><line style="stroke:#33FF33;stroke-width:1.0;" x1="312.5" x2="463.5" y1="550.03" y2="550.03"/></g><!--class UserService--><g id="elem_UserService"><rect codeLine="54" fill="#282828" height="61.0146" id="UserService" rx="2.5" ry="2.5" style="stroke:#33FF33;stroke-width:1.0;" width="375" x="1747.5" y="652.04"/><ellipse cx="1890.25" cy="666.04" fill="#282828" rx="9" ry="9" style="stroke:#33FF33;stroke-width:1.0;"/><path d="M1886.6777,662.3051 L1886.6777,660.1469 L1894.0571,660.1469 L1894.0571,662.3051 L1891.5918,662.3051 L1891.5918,670.3818 L1894.0571,670.3818 L1894.0571,672.54 L1886.6777,672.54 L1886.6777,670.3818 L1889.1431,670.3818 L1889.1431,662.3051 Z " fill="#33FF33"/><text fill="#33FF33" font-family="Verdana" font-size="14" font-style="italic" lengthAdjust="spacing" textLength="82" x="1907.75" y="671.6079">UserService</text><line style="stroke:#33FF33;stroke-width:1.0;" x1="1748.5" x2="2121.5" y1="680.04" y2="680.04"/><line style="stroke:#33FF33;stroke-width:1.0;" x1="1748.5" x2="2121.5" y1="688.04" y2="688.04"/><ellipse cx="1758.5" cy="702.0473" fill="#282828" rx="3" ry="3" style="stroke:#33FF33;stroke-width:1.0;"/><text fill="#33FF33" font-family="Verdana" font-size="14" lengthAdjust="spacing" textLength="351" x="1765.5" y="706.1152">searchUsers(query: SearchCriteria) -&gt; Vec&lt;User&gt;</text></g><!--class UserServiceImpl--><g id="elem_UserServiceImpl"><rect codeLine="58" fill="#282828" height="44" id="UserServiceImpl" rx="2.5" ry="2.5" style="stroke:#33FF33;stroke-width:1.0;" width="143" x="1863.5" y="514.03"/><ellipse cx="1876.5" cy="528.03" fill="#282828" rx="9" ry="9" style="stroke:#33FF33;stroke-width:1.0;"/><path d="M1876.2334,529.093 Q1874.3823,528.3874 1873.7266,527.6113 Q1873.0708,526.8352 1873.0708,525.5237 Q1873.0708,523.8386 1874.1499,522.8757 Q1875.229,521.9128 1877.1133,521.9128 Q1877.9683,521.9128 1878.8232,522.1079 Q1879.6782,522.3029 1880.5166,522.6848 L1880.5166,525.0754 Q1879.728,524.5193 1878.9146,524.2287 Q1878.1011,523.9382 1877.3042,523.9382 Q1876.416,523.9382 1875.9429,524.2951 Q1875.4697,524.6521 1875.4697,525.3161 Q1875.4697,525.8308 1875.8142,526.167 Q1876.1587,526.5031 1877.2544,526.9099 L1878.3086,527.3083 Q1879.8027,527.8562 1880.5083,528.761 Q1881.2139,529.6657 1881.2139,531.0437 Q1881.2139,532.9196 1880.1057,533.8452 Q1878.9976,534.7707 1876.7563,534.7707 Q1875.835,534.7707 1874.9094,534.5508 Q1873.9839,534.3308 1873.1206,533.8991 L1873.1206,531.3674 Q1874.1001,532.0647 1875.0173,532.405 Q1875.9346,532.7453 1876.8311,532.7453 Q1877.7358,532.7453 1878.2339,532.3344 Q1878.7319,531.9236 1878.7319,531.1848 Q1878.7319,530.6286 1878.3999,530.2094 Q1878.0679,529.7903 1877.437,529.5495 Z " fill="#33FF33"/><text fill="#33FF33" font-family="Verdana" font-size="14" lengthAdjust="spacing" textLength="115" x="1888.5" y="533.5979">UserServiceImpl</text><line style="stroke:#33FF33;stroke-width:1.0;" x1="1864.5" x2="2005.5" y1="542.03" y2="542.03"/><line style="stroke:#33FF33;stroke-width:1.0;" x1="1864.5" x2="2005.5" y1="550.03" y2="550.03"/></g><!--class InviteConsumer--><g id="elem_InviteConsumer"><rect codeLine="64" fill="#282828" height="61.0146" id="InviteConsumer" rx="2.5" ry="2.5" style="stroke:#33FF33;stroke-width:1.0;" width="348" x="12" y="376.01"/><ellipse cx="126.25" cy="390.01" fill="#282828" rx="9" ry="9" style="stroke:#33FF33;stroke-width:1.0;"/><path d="M122.6777,386.2751 L122.6777,384.1169 L130.0571,384.1169 L130.0571,386.2751 L127.5918,386.2751 L127.5918,394.3518 L130.0571,394.3518 L130.0571,396.51 L122.6777,396.51 L122.6777,394.3518 L125.1431,394.3518 L125.1431,386.2751 Z " fill="#33FF33"/><text fill="#33FF33" font-family="Verdana" font-size="14" font-style="italic" lengthAdjust="spacing" textLength="112" x="143.75" y="395.5779">InviteConsumer</text><line style="stroke:#33FF33;stroke-width:1.0;" x1="13" x2="359" y1="404.01" y2="404.01"/><line style="stroke:#33FF33;stroke-width:1.0;" x1="13" x2="359" y1="412.01" y2="412.01"/><ellipse cx="23" cy="426.0173" fill="#282828" rx="3" ry="3" style="stroke:#33FF33;stroke-width:1.0;"/><text fill="#33FF33" font-family="Verdana" font-size="14" lengthAdjust="spacing" textLength="324" x="30" y="430.0852">consume(user_id: i32, client_tx: Transmitter)</text></g><!--class InviteConsumerImpl--><g id="elem_InviteConsumerImpl"><rect codeLine="68" fill="#282828" height="44" id="InviteConsumerImpl" rx="2.5" ry="2.5" style="stroke:#33FF33;stroke-width:1.0;" width="173" x="33.5" y="255.01"/><ellipse cx="46.5" cy="269.01" fill="#282828" rx="9" ry="9" style="stroke:#33FF33;stroke-width:1.0;"/><path d="M46.2334,270.073 Q44.3823,269.3674 43.7266,268.5913 Q43.0708,267.8152 43.0708,266.5037 Q43.0708,264.8186 44.1499,263.8557 Q45.229,262.8928 47.1133,262.8928 Q47.9683,262.8928 48.8232,263.0879 Q49.6782,263.2829 50.5166,263.6648 L50.5166,266.0554 Q49.728,265.4993 48.9146,265.2087 Q48.1011,264.9182 47.3042,264.9182 Q46.416,264.9182 45.9429,265.2751 Q45.4697,265.6321 45.4697,266.2961 Q45.4697,266.8108 45.8142,267.147 Q46.1587,267.4831 47.2544,267.8899 L48.3086,268.2883 Q49.8027,268.8362 50.5083,269.741 Q51.2139,270.6457 51.2139,272.0237 Q51.2139,273.8996 50.1057,274.8252 Q48.9976,275.7507 46.7563,275.7507 Q45.835,275.7507 44.9094,275.5308 Q43.9839,275.3108 43.1206,274.8791 L43.1206,272.3474 Q44.1001,273.0447 45.0173,273.385 Q45.9346,273.7253 46.8311,273.7253 Q47.7358,273.7253 48.2339,273.3144 Q48.7319,272.9036 48.7319,272.1648 Q48.7319,271.6086 48.3999,271.1894 Q48.0679,270.7703 47.437,270.5295 Z " fill="#33FF33"/><text fill="#33FF33" font-family="Verdana" font-size="14" lengthAdjust="spacing" textLength="145" x="58.5" y="274.5779">InviteConsumerImpl</text><line style="stroke:#33FF33;stroke-width:1.0;" x1="34.5" x2="205.5" y1="283.01" y2="283.01"/><line style="stroke:#33FF33;stroke-width:1.0;" x1="34.5" x2="205.5" y1="291.01" y2="291.01"/></g><!--class MessageConsumer--><g id="elem_MessageConsumer"><rect codeLine="74" fill="#282828" height="61.0146" id="MessageConsumer" rx="2.5" ry="2.5" style="stroke:#33FF33;stroke-width:1.0;" width="386" x="699" y="376.01"/><ellipse cx="823.25" cy="390.01" fill="#282828" rx="9" ry="9" style="stroke:#33FF33;stroke-width:1.0;"/><path d="M819.6777,386.2751 L819.6777,384.1169 L827.0571,384.1169 L827.0571,386.2751 L824.5918,386.2751 L824.5918,394.3518 L827.0571,394.3518 L827.0571,396.51 L819.6777,396.51 L819.6777,394.3518 L822.1431,394.3518 L822.1431,386.2751 Z " fill="#33FF33"/><text fill="#33FF33" font-family="Verdana" font-size="14" font-style="italic" lengthAdjust="spacing" textLength="130" x="840.75" y="395.5779">MessageConsumer</text><line style="stroke:#33FF33;stroke-width:1.0;" x1="700" x2="1084" y1="404.01" y2="404.01"/><line style="stroke:#33FF33;stroke-width:1.0;" x1="700" x2="1084" y1="412.01" y2="412.01"/><ellipse cx="710" cy="426.0173" fill="#282828" rx="3" ry="3" style="stroke:#33FF33;stroke-width:1.0;"/><text fill="#33FF33" font-family="Verdana" font-size="14" lengthAdjust="spacing" textLength="362" x="717" y="430.0852">consume(chat_rx: Reciever, client_tx: Transmitter)</text></g><!--class MessageConsumerImpl--><g id="elem_MessageConsumerImpl"><rect codeLine="78" fill="#282828" height="44" id="MessageConsumerImpl" rx="2.5" ry="2.5" style="stroke:#33FF33;stroke-width:1.0;" width="191" x="873.5" y="255.01"/><ellipse cx="886.5" cy="269.01" fill="#282828" rx="9" ry="9" style="stroke:#33FF33;stroke-width:1.0;"/><path d="M886.2334,270.073 Q884.3823,269.3674 883.7266,268.5913 Q883.0708,267.8152 883.0708,266.5037 Q883.0708,264.8186 884.1499,263.8557 Q885.229,262.8928 887.1133,262.8928 Q887.9683,262.8928 888.8232,263.0879 Q889.6782,263.2829 890.5166,263.6648 L890.5166,266.0554 Q889.728,265.4993 888.9146,265.2087 Q888.1011,264.9182 887.3042,264.9182 Q886.416,264.9182 885.9429,265.2751 Q885.4697,265.6321 885.4697,266.2961 Q885.4697,266.8108 885.8142,267.147 Q886.1587,267.4831 887.2544,267.8899 L888.3086,268.2883 Q889.8027,268.8362 890.5083,269.741 Q891.2139,270.6457 891.2139,272.0237 Q891.2139,273.8996 890.1057,274.8252 Q888.9976,275.7507 886.7563,275.7507 Q885.835,275.7507 884.9094,275.5308 Q883.9839,275.3108 883.1206,274.8791 L883.1206,272.3474 Q884.1001,273.0447 885.0173,273.385 Q885.9346,273.7253 886.8311,273.7253 Q887.7358,273.7253 888.2339,273.3144 Q888.7319,272.9036 888.7319,272.1648 Q888.7319,271.6086 888.3999,271.1894 Q888.0679,270.7703 887.437,270.5295 Z " fill="#33FF33"/><text fill="#33FF33" font-family="Verdana" font-size="14" lengthAdjust="spacing" textLength="163" x="898.5" y="274.5779">MessageConsumerImpl</text><line style="stroke:#33FF33;stroke-width:1.0;" x1="874.5" x2="1063.5" y1="283.01" y2="283.01"/><line style="stroke:#33FF33;stroke-width:1.0;" x1="874.5" x2="1063.5" y1="291.01" y2="291.01"/></g><!--class ChannelFactory--><g id="elem_ChannelFactory"><rect codeLine="84" fill="#282828" height="61.0146" id="ChannelFactory" rx="2.5" ry="2.5" style="stroke:#33FF33;stroke-width:1.0;" width="163" x="522.5" y="133"/><ellipse cx="547.65" cy="147" fill="#282828" rx="9" ry="9" style="stroke:#33FF33;stroke-width:1.0;"/><path d="M544.0777,143.2651 L544.0777,141.1069 L551.4571,141.1069 L551.4571,143.2651 L548.9918,143.2651 L548.9918,151.3418 L551.4571,151.3418 L551.4571,153.5 L544.0777,153.5 L544.0777,151.3418 L546.5431,151.3418 L546.5431,143.2651 Z " fill="#33FF33"/><text fill="#33FF33" font-family="Verdana" font-size="14" font-style="italic" lengthAdjust="spacing" textLength="108" x="562.35" y="152.5679">ChannelFactory</text><line style="stroke:#33FF33;stroke-width:1.0;" x1="523.5" x2="684.5" y1="161" y2="161"/><line style="stroke:#33FF33;stroke-width:1.0;" x1="523.5" x2="684.5" y1="169" y2="169"/><ellipse cx="533.5" cy="183.0073" fill="#282828" rx="3" ry="3" style="stroke:#33FF33;stroke-width:1.0;"/><text fill="#33FF33" font-family="Verdana" font-size="14" lengthAdjust="spacing" textLength="139" x="540.5" y="187.0752">create() -&gt; Channel</text></g><!--class ChannelFactoryImpl--><g id="elem_ChannelFactoryImpl"><rect codeLine="88" fill="#282828" height="44" id="ChannelFactoryImpl" rx="2.5" ry="2.5" style="stroke:#33FF33;stroke-width:1.0;" width="169" x="519.5" y="12"/><ellipse cx="532.5" cy="26" fill="#282828" rx="9" ry="9" style="stroke:#33FF33;stroke-width:1.0;"/><path d="M532.2334,27.063 Q530.3823,26.3574 529.7266,25.5813 Q529.0708,24.8052 529.0708,23.4937 Q529.0708,21.8086 530.1499,20.8457 Q531.229,19.8828 533.1133,19.8828 Q533.9683,19.8828 534.8232,20.0779 Q535.6782,20.2729 536.5166,20.6548 L536.5166,23.0454 Q535.728,22.4893 534.9146,22.1987 Q534.1011,21.9082 533.3042,21.9082 Q532.416,21.9082 531.9429,22.2651 Q531.4697,22.6221 531.4697,23.2861 Q531.4697,23.8008 531.8142,24.137 Q532.1587,24.4731 533.2544,24.8799 L534.3086,25.2783 Q535.8027,25.8262 536.5083,26.731 Q537.2139,27.6357 537.2139,29.0137 Q537.2139,30.8896 536.1057,31.8152 Q534.9976,32.7407 532.7563,32.7407 Q531.835,32.7407 530.9094,32.5208 Q529.9839,32.3008 529.1206,31.8691 L529.1206,29.3374 Q530.1001,30.0347 531.0173,30.375 Q531.9346,30.7153 532.8311,30.7153 Q533.7358,30.7153 534.2339,30.3044 Q534.7319,29.8936 534.7319,29.1548 Q534.7319,28.5986 534.3999,28.1794 Q534.0679,27.7603 533.437,27.5195 Z " fill="#33FF33"/><text fill="#33FF33" font-family="Verdana" font-size="14" lengthAdjust="spacing" textLength="141" x="544.5" y="31.5679">ChannelFactoryImpl</text><line style="stroke:#33FF33;stroke-width:1.0;" x1="520.5" x2="687.5" y1="40" y2="40"/><line style="stroke:#33FF33;stroke-width:1.0;" x1="520.5" x2="687.5" y1="48" y2="48"/></g><!--class Producer_V--><g id="elem_Producer_V"><rect codeLine="95" fill="#282828" height="61.0146" id="Producer_V" rx="2.5" ry="2.5" style="stroke:#33FF33;stroke-width:1.0;" width="240" x="423" y="376.01"/><ellipse cx="499.25" cy="390.01" fill="#282828" rx="9" ry="9" style="stroke:#33FF33;stroke-width:1.0;"/><path d="M495.6777,386.2751 L495.6777,384.1169 L503.0571,384.1169 L503.0571,386.2751 L500.5918,386.2751 L500.5918,394.3518 L503.0571,394.3518 L503.0571,396.51 L495.6777,396.51 L495.6777,394.3518 L498.1431,394.3518 L498.1431,386.2751 Z " fill="#33FF33"/><text fill="#33FF33" font-family="Verdana" font-size="14" font-style="italic" lengthAdjust="spacing" textLength="80" x="516.75" y="395.5779">Producer_V</text><line style="stroke:#33FF33;stroke-width:1.0;" x1="424" x2="662" y1="404.01" y2="404.01"/><line style="stroke:#33FF33;stroke-width:1.0;" x1="424" x2="662" y1="412.01" y2="412.01"/><ellipse cx="434" cy="426.0173" fill="#282828" rx="3" ry="3" style="stroke:#33FF33;stroke-width:1.0;"/><text fill="#33FF33" font-family="Verdana" font-size="14" lengthAdjust="spacing" textLength="216" x="441" y="430.0852">produce(produce: V) -&gt; Result</text></g><!--class MessageProducer--><g id="elem_MessageProducer"><rect codeLine="99" fill="#282828" height="44" id="MessageProducer" rx="2.5" ry="2.5" style="stroke:#33FF33;stroke-width:1.0;" width="148" x="470" y="255.01"/><ellipse cx="483" cy="269.01" fill="#282828" rx="9" ry="9" style="stroke:#33FF33;stroke-width:1.0;"/><path d="M482.7334,270.073 Q480.8823,269.3674 480.2266,268.5913 Q479.5708,267.8152 479.5708,266.5037 Q479.5708,264.8186 480.6499,263.8557 Q481.729,262.8928 483.6133,262.8928 Q484.4683,262.8928 485.3232,263.0879 Q486.1782,263.2829 487.0166,263.6648 L487.0166,266.0554 Q486.228,265.4993 485.4146,265.2087 Q484.6011,264.9182 483.8042,264.9182 Q482.916,264.9182 482.4429,265.2751 Q481.9697,265.6321 481.9697,266.2961 Q481.9697,266.8108 482.3142,267.147 Q482.6587,267.4831 483.7544,267.8899 L484.8086,268.2883 Q486.3027,268.8362 487.0083,269.741 Q487.7139,270.6457 487.7139,272.0237 Q487.7139,273.8996 486.6057,274.8252 Q485.4976,275.7507 483.2563,275.7507 Q482.335,275.7507 481.4094,275.5308 Q480.4839,275.3108 479.6206,274.8791 L479.6206,272.3474 Q480.6001,273.0447 481.5173,273.385 Q482.4346,273.7253 483.3311,273.7253 Q484.2358,273.7253 484.7339,273.3144 Q485.2319,272.9036 485.2319,272.1648 Q485.2319,271.6086 484.8999,271.1894 Q484.5679,270.7703 483.937,270.5295 Z " fill="#33FF33"/><text fill="#33FF33" font-family="Verdana" font-size="14" lengthAdjust="spacing" textLength="120" x="495" y="274.5779">MessageProducer</text><line style="stroke:#33FF33;stroke-width:1.0;" x1="471" x2="617" y1="283.01" y2="283.01"/><line style="stroke:#33FF33;stroke-width:1.0;" x1="471" x2="617" y1="291.01" y2="291.01"/></g><!--class InviteCreatedProducer--><g id="elem_InviteCreatedProducer"><rect codeLine="106" fill="#282828" height="44" id="InviteCreatedProducer" rx="2.5" ry="2.5" style="stroke:#33FF33;stroke-width:1.0;" width="185" x="653.5" y="255.01"/><ellipse cx="666.5" cy="269.01" fill="#282828" rx="9" ry="9" style="stroke:#33FF33;stroke-width:1.0;"/><path d="M666.2334,270.073 Q664.3823,269.3674 663.7266,268.5913 Q663.0708,267.8152 663.0708,266.5037 Q663.0708,264.8186 664.1499,263.8557 Q665.229,262.8928 667.1133,262.8928 Q667.9683,262.8928 668.8232,263.0879 Q669.6782,263.2829 670.5166,263.6648 L670.5166,266.0554 Q669.728,265.4993 668.9146,265.2087 Q668.1011,264.9182 667.3042,264.9182 Q666.416,264.9182 665.9429,265.2751 Q665.4697,265.6321 665.4697,266.2961 Q665.4697,266.8108 665.8142,267.147 Q666.1587,267.4831 667.2544,267.8899 L668.3086,268.2883 Q669.8027,268.8362 670.5083,269.741 Q671.2139,270.6457 671.2139,272.0237 Q671.2139,273.8996 670.1057,274.8252 Q668.9976,275.7507 666.7563,275.7507 Q665.835,275.7507 664.9094,275.5308 Q663.9839,275.3108 663.1206,274.8791 L663.1206,272.3474 Q664.1001,273.0447 665.0173,273.385 Q665.9346,273.7253 666.8311,273.7253 Q667.7358,273.7253 668.2339,273.3144 Q668.7319,272.9036 668.7319,272.1648 Q668.7319,271.6086 668.3999,271.1894 Q668.0679,270.7703 667.437,270.5295 Z " fill="#33FF33"/><text fill="#33FF33" font-family="Verdana" font-size="14" lengthAdjust="spacing" textLength="157" x="678.5" y="274.5779">InviteCreatedProducer</text><line style="stroke:#33FF33;stroke-width:1.0;" x1="654.5" x2="837.5" y1="283.01" y2="283.01"/><line style="stroke:#33FF33;stroke-width:1.0;" x1="654.5" x2="837.5" y1="291.01" y2="291.01"/></g><!--class InviteAcceptedProducer--><g id="elem_InviteAcceptedProducer"><rect codeLine="114" fill="#282828" height="44" id="InviteAcceptedProducer" rx="2.5" ry="2.5" style="stroke:#33FF33;stroke-width:1.0;" width="194" x="241" y="255.01"/><ellipse cx="254" cy="269.01" fill="#282828" rx="9" ry="9" style="stroke:#33FF33;stroke-width:1.0;"/><path d="M253.7334,270.073 Q251.8823,269.3674 251.2266,268.5913 Q250.5708,267.8152 250.5708,266.5037 Q250.5708,264.8186 251.6499,263.8557 Q252.729,262.8928 254.6133,262.8928 Q255.4683,262.8928 256.3232,263.0879 Q257.1782,263.2829 258.0166,263.6648 L258.0166,266.0554 Q257.228,265.4993 256.4146,265.2087 Q255.6011,264.9182 254.8042,264.9182 Q253.916,264.9182 253.4429,265.2751 Q252.9697,265.6321 252.9697,266.2961 Q252.9697,266.8108 253.3142,267.147 Q253.6587,267.4831 254.7544,267.8899 L255.8086,268.2883 Q257.3027,268.8362 258.0083,269.741 Q258.7139,270.6457 258.7139,272.0237 Q258.7139,273.8996 257.6057,274.8252 Q256.4976,275.7507 254.2563,275.7507 Q253.335,275.7507 252.4094,275.5308 Q251.4839,275.3108 250.6206,274.8791 L250.6206,272.3474 Q251.6001,273.0447 252.5173,273.385 Q253.4346,273.7253 254.3311,273.7253 Q255.2358,273.7253 255.7339,273.3144 Q256.2319,272.9036 256.2319,272.1648 Q256.2319,271.6086 255.8999,271.1894 Q255.5679,270.7703 254.937,270.5295 Z " fill="#33FF33"/><text fill="#33FF33" font-family="Verdana" font-size="14" lengthAdjust="spacing" textLength="166" x="266" y="274.5779">InviteAcceptedProducer</text><line style="stroke:#33FF33;stroke-width:1.0;" x1="242" x2="434" y1="283.01" y2="283.01"/><line style="stroke:#33FF33;stroke-width:1.0;" x1="242" x2="434" y1="291.01" y2="291.01"/></g><!--class ChatNotifier--><g id="elem_ChatNotifier"><rect codeLine="119" fill="#282828" height="61.0146" id="ChatNotifier" rx="2.5" ry="2.5" style="stroke:#33FF33;stroke-width:1.0;" width="356" x="1045" y="652.04"/><ellipse cx="1177.25" cy="666.04" fill="#282828" rx="9" ry="9" style="stroke:#33FF33;stroke-width:1.0;"/><path d="M1173.6777,662.3051 L1173.6777,660.1469 L1181.0571,660.1469 L1181.0571,662.3051 L1178.5918,662.3051 L1178.5918,670.3818 L1181.0571,670.3818 L1181.0571,672.54 L1173.6777,672.54 L1173.6777,670.3818 L1176.1431,670.3818 L1176.1431,662.3051 Z " fill="#33FF33"/><text fill="#33FF33" font-family="Verdana" font-size="14" font-style="italic" lengthAdjust="spacing" textLength="84" x="1194.75" y="671.6079">ChatNotifier</text><line style="stroke:#33FF33;stroke-width:1.0;" x1="1046" x2="1400" y1="680.04" y2="680.04"/><line style="stroke:#33FF33;stroke-width:1.0;" x1="1046" x2="1400" y1="688.04" y2="688.04"/><ellipse cx="1056" cy="702.0473" fill="#282828" rx="3" ry="3" style="stroke:#33FF33;stroke-width:1.0;"/><text fill="#33FF33" font-family="Verdana" font-size="14" lengthAdjust="spacing" textLength="332" x="1063" y="706.1152">notify(user_id: i32, consumer_tx: Transmitter)</text></g><!--class ChatNotifierImpl--><g id="elem_ChatNotifierImpl"><rect codeLine="123" fill="#282828" height="44" id="ChatNotifierImpl" rx="2.5" ry="2.5" style="stroke:#33FF33;stroke-width:1.0;" width="145" x="1150.5" y="514.03"/><ellipse cx="1163.5" cy="528.03" fill="#282828" rx="9" ry="9" style="stroke:#33FF33;stroke-width:1.0;"/><path d="M1163.2334,529.093 Q1161.3823,528.3874 1160.7266,527.6113 Q1160.0708,526.8352 1160.0708,525.5237 Q1160.0708,523.8386 1161.1499,522.8757 Q1162.229,521.9128 1164.1133,521.9128 Q1164.9683,521.9128 1165.8232,522.1079 Q1166.6782,522.3029 1167.5166,522.6848 L1167.5166,525.0754 Q1166.728,524.5193 1165.9146,524.2287 Q1165.1011,523.9382 1164.3042,523.9382 Q1163.416,523.9382 1162.9429,524.2951 Q1162.4697,524.6521 1162.4697,525.3161 Q1162.4697,525.8308 1162.8142,526.167 Q1163.1587,526.5031 1164.2544,526.9099 L1165.3086,527.3083 Q1166.8027,527.8562 1167.5083,528.761 Q1168.2139,529.6657 1168.2139,531.0437 Q1168.2139,532.9196 1167.1057,533.8452 Q1165.9976,534.7707 1163.7563,534.7707 Q1162.835,534.7707 1161.9094,534.5508 Q1160.9839,534.3308 1160.1206,533.8991 L1160.1206,531.3674 Q1161.1001,532.0647 1162.0173,532.405 Q1162.9346,532.7453 1163.8311,532.7453 Q1164.7358,532.7453 1165.2339,532.3344 Q1165.7319,531.9236 1165.7319,531.1848 Q1165.7319,530.6286 1165.3999,530.2094 Q1165.0679,529.7903 1164.437,529.5495 Z " fill="#33FF33"/><text fill="#33FF33" font-family="Verdana" font-size="14" lengthAdjust="spacing" textLength="117" x="1175.5" y="533.5979">ChatNotifierImpl</text><line style="stroke:#33FF33;stroke-width:1.0;" x1="1151.5" x2="1294.5" y1="542.03" y2="542.03"/><line style="stroke:#33FF33;stroke-width:1.0;" x1="1151.5" x2="1294.5" y1="550.03" y2="550.03"/></g><!--class InviteAcceptedConsumer--><g id="elem_InviteAcceptedConsumer"><rect codeLine="128" fill="#282828" height="61.0146" id="InviteAcceptedConsumer" rx="2.5" ry="2.5" style="stroke:#33FF33;stroke-width:1.0;" width="204" x="1121" y="376.01"/><ellipse cx="1134" cy="390.01" fill="#282828" rx="9" ry="9" style="stroke:#33FF33;stroke-width:1.0;"/><path d="M1130.4277,386.2751 L1130.4277,384.1169 L1137.8071,384.1169 L1137.8071,386.2751 L1135.3418,386.2751 L1135.3418,394.3518 L1137.8071,394.3518 L1137.8071,396.51 L1130.4277,396.51 L1130.4277,394.3518 L1132.8931,394.3518 L1132.8931,386.2751 Z " fill="#33FF33"/><text fill="#33FF33" font-family="Verdana" font-size="14" font-style="italic" lengthAdjust="spacing" textLength="176" x="1146" y="395.5779">InviteAcceptedConsumer</text><line style="stroke:#33FF33;stroke-width:1.0;" x1="1122" x2="1324" y1="404.01" y2="404.01"/><line style="stroke:#33FF33;stroke-width:1.0;" x1="1122" x2="1324" y1="412.01" y2="412.01"/><ellipse cx="1132" cy="426.0173" fill="#282828" rx="3" ry="3" style="stroke:#33FF33;stroke-width:1.0;"/><text fill="#33FF33" font-family="Verdana" font-size="14" lengthAdjust="spacing" textLength="160" x="1139" y="430.0852">consume() -&gt; Reciever</text></g><!--class InviteAcceptedConsumerImpl--><g id="elem_InviteAcceptedConsumerImpl"><rect codeLine="132" fill="#282828" height="44" id="InviteAcceptedConsumerImpl" rx="2.5" ry="2.5" style="stroke:#33FF33;stroke-width:1.0;" width="237" x="1101.5" y="255.01"/><ellipse cx="1114.5" cy="269.01" fill="#282828" rx="9" ry="9" style="stroke:#33FF33;stroke-width:1.0;"/><path d="M1114.2334,270.073 Q1112.3823,269.3674 1111.7266,268.5913 Q1111.0708,267.8152 1111.0708,266.5037 Q1111.0708,264.8186 1112.1499,263.8557 Q1113.229,262.8928 1115.1133,262.8928 Q1115.9683,262.8928 1116.8232,263.0879 Q1117.6782,263.2829 1118.5166,263.6648 L1118.5166,266.0554 Q1117.728,265.4993 1116.9146,265.2087 Q1116.1011,264.9182 1115.3042,264.9182 Q1114.416,264.9182 1113.9429,265.2751 Q1113.4697,265.6321 1113.4697,266.2961 Q1113.4697,266.8108 1113.8142,267.147 Q1114.1587,267.4831 1115.2544,267.8899 L1116.3086,268.2883 Q1117.8027,268.8362 1118.5083,269.741 Q1119.2139,270.6457 1119.2139,272.0237 Q1119.2139,273.8996 1118.1057,274.8252 Q1116.9976,275.7507 1114.7563,275.7507 Q1113.835,275.7507 1112.9094,275.5308 Q1111.9839,275.3108 1111.1206,274.8791 L1111.1206,272.3474 Q1112.1001,273.0447 1113.0173,273.385 Q1113.9346,273.7253 1114.8311,273.7253 Q1115.7358,273.7253 1116.2339,273.3144 Q1116.7319,272.9036 1116.7319,272.1648 Q1116.7319,271.6086 1116.3999,271.1894 Q1116.0679,270.7703 1115.437,270.5295 Z " fill="#33FF33"/><text fill="#33FF33" font-family="Verdana" font-size="14" lengthAdjust="spacing" textLength="209" x="1126.5" y="274.5779">InviteAcceptedConsumerImpl</text><line style="stroke:#33FF33;stroke-width:1.0;" x1="1102.5" x2="1337.5" y1="283.01" y2="283.01"/><line style="stroke:#33FF33;stroke-width:1.0;" x1="1102.5" x2="1337.5" y1="291.01" y2="291.01"/></g><!--link CrabMessengerImpl to CrabMessenger--><g id="link_CrabMessengerImpl_CrabMessenger"><path codeLine="17" d="M1223,835.53 C1223,854.44 1223,865.31 1223,893.68 " fill="none" id="CrabMessengerImpl-to-CrabMessenger" style="stroke:#33FF33;stroke-width:1.0;"/><polygon fill="none" points="1223,911.68,1229,893.68,1217,893.68,1223,911.68" style="stroke:#33FF33;stroke-width:1.0;"/><text fill="#33FF33" font-family="Verdana" font-size="13" lengthAdjust="spacing" textLength="78" x="1224" y="879.1398">implements</text></g><!--link MessengerImpl to Messenger--><g id="link_MessengerImpl_Messenger"><path codeLine="26" d="M795,558.35 C795,583.01 795,605.76 795,633.59 " fill="none" id="MessengerImpl-to-Messenger" style="stroke:#33FF33;stroke-width:1.0;"/><polygon fill="none" points="795,651.59,801,633.59,789,633.59,795,651.59" style="stroke:#33FF33;stroke-width:1.0;"/><text fill="#33FF33" font-family="Verdana" font-size="13" lengthAdjust="spacing" textLength="78" x="796" y="602.0998">implements</text></g><!--link Messenger to CrabMessengerImpl--><g id="link_Messenger_CrabMessengerImpl"><path codeLine="28" d="M894.81,713.52 C973.48,737.15 1069.7773,766.0576 1140.0173,787.1576 " fill="none" id="Messenger-to-CrabMessengerImpl" style="stroke:#33FF33;stroke-width:1.0;"/><polygon fill="none" points="1151.51,790.61,1146.9145,785.0529,1140.0173,787.1576,1144.6129,792.7147,1151.51,790.61" style="stroke:#33FF33;stroke-width:1.0;"/></g><!--link ChatServiceImpl to ChatService--><g id="link_ChatServiceImpl_ChatService"><path codeLine="38" d="M1574,558.35 C1574,578.38 1574,591.01 1574,616.73 " fill="none" id="ChatServiceImpl-to-ChatService" style="stroke:#33FF33;stroke-width:1.0;"/><polygon fill="none" points="1574,634.73,1580,616.73,1568,616.73,1574,634.73" style="stroke:#33FF33;stroke-width:1.0;"/><text fill="#33FF33" font-family="Verdana" font-size="13" lengthAdjust="spacing" textLength="78" x="1575" y="602.0998">implements</text></g><!--link ChatService to CrabMessengerImpl--><g id="link_ChatService_CrabMessengerImpl"><path codeLine="40" d="M1445.79,730.5 C1389.59,751.08 1337.6587,770.0948 1292.9687,786.4548 " fill="none" id="ChatService-to-CrabMessengerImpl" style="stroke:#33FF33;stroke-width:1.0;"/><polygon fill="none" points="1281.7,790.58,1288.7094,792.2736,1292.9687,786.4548,1285.9593,784.7612,1281.7,790.58" style="stroke:#33FF33;stroke-width:1.0;"/></g><!--link InviteServiceImpl to InviteService--><g id="link_InviteServiceImpl_InviteService"><path codeLine="50" d="M385.34,558.35 C382.85,578.38 381.2524,591.1477 378.0524,616.8677 " fill="none" id="InviteServiceImpl-to-InviteService" style="stroke:#33FF33;stroke-width:1.0;"/><polygon fill="none" points="375.83,634.73,384.0065,617.6085,372.0983,616.1269,375.83,634.73" style="stroke:#33FF33;stroke-width:1.0;"/><text fill="#33FF33" font-family="Verdana" font-size="13" lengthAdjust="spacing" textLength="78" x="383" y="602.0998">implements</text></g><!--link InviteService to CrabMessengerImpl--><g id="link_InviteService_CrabMessengerImpl"><path codeLine="52" d="M544.83,726.8 C550.61,727.95 556.35,729.04 562,730.07 C767.61,767.61 1000.4512,791.9126 1126.5912,803.6026 " fill="none" id="InviteService-to-CrabMessengerImpl" style="stroke:#33FF33;stroke-width:1.0;"/><polygon fill="none" points="1138.54,804.71,1132.9347,800.1734,1126.5912,803.6026,1132.1965,808.1393,1138.54,804.71" style="stroke:#33FF33;stroke-width:1.0;"/></g><!--link UserServiceImpl to UserService--><g id="link_UserServiceImpl_UserService"><path codeLine="60" d="M1935,558.35 C1935,583.01 1935,605.76 1935,633.59 " fill="none" id="UserServiceImpl-to-UserService" style="stroke:#33FF33;stroke-width:1.0;"/><polygon fill="none" points="1935,651.59,1941,633.59,1929,633.59,1935,651.59" style="stroke:#33FF33;stroke-width:1.0;"/><text fill="#33FF33" font-family="Verdana" font-size="13" lengthAdjust="spacing" textLength="78" x="1936" y="602.0998">implements</text></g><!--link UserService to CrabMessengerImpl--><g id="link_UserService_CrabMessengerImpl"><path codeLine="62" d="M1808.68,713.52 C1782.72,719.32 1755.53,725.12 1730,730.07 C1581.85,758.83 1419.8644,783.6787 1319.0444,798.3787 " fill="none" id="UserService-to-CrabMessengerImpl" style="stroke:#33FF33;stroke-width:1.0;"/><polygon fill="none" points="1307.17,800.11,1313.6843,803.2025,1319.0444,798.3787,1312.5301,795.2862,1307.17,800.11" style="stroke:#33FF33;stroke-width:1.0;"/></g><!--link InviteConsumerImpl to InviteConsumer--><g id="link_InviteConsumerImpl_InviteConsumer"><path codeLine="70" d="M131.05,299.36 C141.91,320.34 150.3044,336.5652 162.4344,359.9952 " fill="none" id="InviteConsumerImpl-to-InviteConsumer" style="stroke:#33FF33;stroke-width:1.0;"/><polygon fill="none" points="170.71,375.98,167.7627,357.2366,157.1062,362.7537,170.71,375.98" style="stroke:#33FF33;stroke-width:1.0;"/><text fill="#33FF33" font-family="Verdana" font-size="13" lengthAdjust="spacing" textLength="78" x="156" y="343.0798">implements</text></g><!--link InviteConsumer to InviteServiceImpl--><g id="link_InviteConsumer_InviteServiceImpl"><path codeLine="72" d="M233.36,437.42 C270.44,460.82 310.9733,486.4035 344.0433,507.2835 " fill="none" id="InviteConsumer-to-InviteServiceImpl" style="stroke:#33FF33;stroke-width:1.0;"/><polygon fill="none" points="354.19,513.69,351.2521,507.1045,344.0433,507.2835,346.9811,513.869,354.19,513.69" style="stroke:#33FF33;stroke-width:1.0;"/></g><!--link MessageConsumerImpl to MessageConsumer--><g id="link_MessageConsumerImpl_MessageConsumer"><path codeLine="80" d="M956.11,299.36 C943.44,320.34 933.2954,337.1419 919.1454,360.5719 " fill="none" id="MessageConsumerImpl-to-MessageConsumer" style="stroke:#33FF33;stroke-width:1.0;"/><polygon fill="none" points="909.84,375.98,924.2814,363.6737,914.0093,357.4701,909.84,375.98" style="stroke:#33FF33;stroke-width:1.0;"/><text fill="#33FF33" font-family="Verdana" font-size="13" lengthAdjust="spacing" textLength="78" x="939" y="343.0798">implements</text></g><!--link MessageConsumer to MessengerImpl--><g id="link_MessageConsumer_MessengerImpl"><path codeLine="82" d="M869.26,437.42 C851.45,460.82 834.3871,483.2607 818.4971,504.1407 " fill="none" id="MessageConsumer-to-MessengerImpl" style="stroke:#33FF33;stroke-width:1.0;"/><polygon fill="none" points="811.23,513.69,818.0467,511.3377,818.4971,504.1407,811.6805,506.493,811.23,513.69" style="stroke:#33FF33;stroke-width:1.0;"/></g><!--link ChannelFactoryImpl to ChannelFactory--><g id="link_ChannelFactoryImpl_ChannelFactory"><path codeLine="90" d="M604,56.34 C604,77.33 604,91.53 604,114.97 " fill="none" id="ChannelFactoryImpl-to-ChannelFactory" style="stroke:#33FF33;stroke-width:1.0;"/><polygon fill="none" points="604,132.97,610,114.97,598,114.97,604,132.97" style="stroke:#33FF33;stroke-width:1.0;"/><text fill="#33FF33" font-family="Verdana" font-size="13" lengthAdjust="spacing" textLength="78" x="605" y="100.0698">implements</text></g><!--link ChannelFactory to MessageConsumerImpl--><g id="link_ChannelFactory_MessageConsumerImpl"><path codeLine="92" d="M685.91,189.53 C749.91,209.08 826.4437,232.4635 887.2537,251.0435 " fill="none" id="ChannelFactory-to-MessageConsumerImpl" style="stroke:#33FF33;stroke-width:1.0;"/><polygon fill="none" points="898.73,254.55,894.1607,248.9713,887.2537,251.0435,891.823,256.6222,898.73,254.55" style="stroke:#33FF33;stroke-width:1.0;"/></g><!--link ChannelFactory to InviteConsumerImpl--><g id="link_ChannelFactory_InviteConsumerImpl"><path codeLine="93" d="M522.17,183.36 C434.56,203.54 307.8238,232.7464 218.3938,253.3464 " fill="none" id="ChannelFactory-to-InviteConsumerImpl" style="stroke:#33FF33;stroke-width:1.0;"/><polygon fill="none" points="206.7,256.04,213.4448,258.5911,218.3938,253.3464,211.649,250.7953,206.7,256.04" style="stroke:#33FF33;stroke-width:1.0;"/></g><!--link MessageProducer to Producer_V--><g id="link_MessageProducer_Producer_V"><path codeLine="101" d="M543.49,299.35 C543.29,308.49 543.1,319.27 543,329.01 C542.85,344.42 542.7919,343.57 542.8219,357.73 " fill="none" id="MessageProducer-to-Producer_V" style="stroke:#33FF33;stroke-width:1.0;"/><polygon fill="none" points="542.86,375.73,548.8219,357.7173,536.8219,357.7428,542.86,375.73" style="stroke:#33FF33;stroke-width:1.0;"/><text fill="#33FF33" font-family="Verdana" font-size="13" lengthAdjust="spacing" textLength="157" x="544" y="343.0798">implements&lt;Message&gt;</text></g><!--link ChannelFactory to MessageProducer--><g id="link_ChannelFactory_MessageProducer"><path codeLine="103" d="M587.92,194.39 C577.72,213.36 570.4333,226.8812 561.2433,243.9712 " fill="none" id="ChannelFactory-to-MessageProducer" style="stroke:#33FF33;stroke-width:1.0;"/><polygon fill="none" points="555.56,254.54,561.9246,251.15,561.2433,243.9712,554.8787,247.3612,555.56,254.54" style="stroke:#33FF33;stroke-width:1.0;"/></g><!--link Producer_V to MessengerImpl--><g id="link_Producer_V_MessengerImpl"><path codeLine="104" d="M602.08,437.42 C648.34,460.82 700.8529,487.3916 742.1129,508.2716 " fill="none" id="Producer_V-to-MessengerImpl" style="stroke:#33FF33;stroke-width:1.0;"/><polygon fill="none" points="752.82,513.69,749.2726,507.4118,742.1129,508.2716,745.6603,514.5498,752.82,513.69" style="stroke:#33FF33;stroke-width:1.0;"/><text fill="#33FF33" font-family="Verdana" font-size="13" lengthAdjust="spacing" textLength="79" x="693" y="481.0998">&lt;Message&gt;</text></g><!--link InviteCreatedProducer to Producer_V--><g id="link_InviteCreatedProducer_Producer_V"><path codeLine="108" d="M738.02,299.37 C731.47,314.28 720.84,333.65 706,346.01 C691.53,358.07 690.8794,360.4938 673.2594,368.2938 " fill="none" id="InviteCreatedProducer-to-Producer_V" style="stroke:#33FF33;stroke-width:1.0;"/><polygon fill="none" points="656.8,375.58,675.6881,373.7802,670.8306,362.8073,656.8,375.58" style="stroke:#33FF33;stroke-width:1.0;"/><text fill="#33FF33" font-family="Verdana" font-size="13" lengthAdjust="spacing" textLength="138" x="722" y="343.0798">implements&lt;Invite&gt;</text></g><!--link ChannelFactory to InviteCreatedProducer--><g id="link_ChannelFactory_InviteCreatedProducer"><path codeLine="110" d="M642.05,194.39 C666.21,213.36 687.4643,230.0359 709.2143,247.1259 " fill="none" id="ChannelFactory-to-InviteCreatedProducer" style="stroke:#33FF33;stroke-width:1.0;"/><polygon fill="none" points="718.65,254.54,716.4035,247.6878,709.2143,247.1259,711.4608,253.9782,718.65,254.54" style="stroke:#33FF33;stroke-width:1.0;"/></g><!--link Producer_V to InviteServiceImpl--><g id="link_Producer_V_InviteServiceImpl"><path codeLine="111" d="M532.02,437.39 C525.08,452.92 514.79,471.27 501,484.03 C487.65,496.38 481.726,501.1678 465.146,508.6978 " fill="none" id="Producer_V-to-InviteServiceImpl" style="stroke:#33FF33;stroke-width:1.0;"/><polygon fill="none" points="454.22,513.66,461.337,514.8209,465.146,508.6978,458.0289,507.5369,454.22,513.66" style="stroke:#33FF33;stroke-width:1.0;"/><text fill="#33FF33" font-family="Verdana" font-size="13" lengthAdjust="spacing" textLength="60" x="516" y="481.0998">&lt;Invite&gt;</text></g><!--link Producer_V to InviteServiceImpl--><g id="link_Producer_V_InviteServiceImpl"><path codeLine="112" d="M422.75,432.75 C406.73,441.11 392.3,452.23 382,467.03 C372.65,480.45 371.7258,487.653 375.9858,502.053 " fill="none" id="Producer_V-to-InviteServiceImpl-1" style="stroke:#33FF33;stroke-width:1.0;"/><polygon fill="none" points="379.39,513.56,381.5236,506.6718,375.9858,502.053,373.8522,508.9412,379.39,513.56" style="stroke:#33FF33;stroke-width:1.0;"/><text fill="#33FF33" font-family="Verdana" font-size="13" lengthAdjust="spacing" textLength="109" x="383" y="481.0998">&lt;InviteAnswer&gt;</text></g><!--link ChannelFactory to InviteAcceptedProducer--><g id="link_ChannelFactory_InviteAcceptedProducer"><path codeLine="116" d="M532.72,194.39 C487.47,213.36 441.0566,232.81 400.2966,249.9 " fill="none" id="ChannelFactory-to-InviteAcceptedProducer" style="stroke:#33FF33;stroke-width:1.0;"/><polygon fill="none" points="389.23,254.54,396.31,255.9088,400.2966,249.9,393.2166,248.5311,389.23,254.54" style="stroke:#33FF33;stroke-width:1.0;"/></g><!--link InviteAcceptedProducer to Producer_V--><g id="link_InviteAcceptedProducer_Producer_V"><path codeLine="117" d="M334.86,299.39 C333.92,314.12 335.31,333.26 346,346.01 C365.44,369.23 376.3815,378.3437 405.3615,387.1737 " fill="none" id="InviteAcceptedProducer-to-Producer_V" style="stroke:#33FF33;stroke-width:1.0;"/><polygon fill="none" points="422.58,392.42,407.1103,381.4342,403.6127,392.9131,422.58,392.42" style="stroke:#33FF33;stroke-width:1.0;"/><text fill="#33FF33" font-family="Verdana" font-size="13" lengthAdjust="spacing" textLength="187" x="347" y="343.0798">implements&lt;InviteAnswer&gt;</text></g><!--link ChatNotifierImpl to ChatNotifier--><g id="link_ChatNotifierImpl_ChatNotifier"><path codeLine="125" d="M1223,558.35 C1223,583.01 1223,605.76 1223,633.59 " fill="none" id="ChatNotifierImpl-to-ChatNotifier" style="stroke:#33FF33;stroke-width:1.0;"/><polygon fill="none" points="1223,651.59,1229,633.59,1217,633.59,1223,651.59" style="stroke:#33FF33;stroke-width:1.0;"/><text fill="#33FF33" font-family="Verdana" font-size="13" lengthAdjust="spacing" textLength="78" x="1224" y="602.0998">implements</text></g><!--link ChatNotifier to CrabMessengerImpl--><g id="link_ChatNotifier_CrabMessengerImpl"><path codeLine="126" d="M1223,713.36 C1223,737.09 1223,757.72 1223,778.85 " fill="none" id="ChatNotifier-to-CrabMessengerImpl" style="stroke:#33FF33;stroke-width:1.0;"/><polygon fill="none" points="1223,790.85,1227,784.85,1223,778.85,1219,784.85,1223,790.85" style="stroke:#33FF33;stroke-width:1.0;"/></g><!--link InviteAcceptedConsumerImpl to InviteAcceptedConsumer--><g id="link_InviteAcceptedConsumerImpl_InviteAcceptedConsumer"><path codeLine="134" d="M1220.5,299.36 C1221,320.34 1221.3199,334.5551 1221.8799,357.9851 " fill="none" id="InviteAcceptedConsumerImpl-to-InviteAcceptedConsumer" style="stroke:#33FF33;stroke-width:1.0;"/><polygon fill="none" points="1222.31,375.98,1227.8782,357.8418,1215.8816,358.1285,1222.31,375.98" style="stroke:#33FF33;stroke-width:1.0;"/><text fill="#33FF33" font-family="Verdana" font-size="13" lengthAdjust="spacing" textLength="78" x="1223" y="343.0798">implements</text></g><!--link InviteAcceptedConsumer to ChatNotifierImpl--><g id="link_InviteAcceptedConsumer_ChatNotifierImpl"><path codeLine="135" d="M1223,437.42 C1223,460.82 1223,480.81 1223,501.69 " fill="none" id="InviteAcceptedConsumer-to-ChatNotifierImpl" style="stroke:#33FF33;stroke-width:1.0;"/><polygon fill="none" points="1223,513.69,1227,507.69,1223,501.69,1219,507.69,1223,513.69" style="stroke:#33FF33;stroke-width:1.0;"/></g><!--link ChannelFactory to InviteAcceptedConsumerImpl--><g id="link_ChannelFactory_InviteAcceptedConsumerImpl"><path codeLine="136" d="M685.8,179.31 C792.33,198.6 967.5019,230.3126 1089.5919,252.4126 " fill="none" id="ChannelFactory-to-InviteAcceptedConsumerImpl" style="stroke:#33FF33;stroke-width:1.0;"/><polygon fill="none" points="1101.4,254.55,1096.2084,249.5452,1089.5919,252.4126,1094.7835,257.4173,1101.4,254.55" style="stroke:#33FF33;stroke-width:1.0;"/></g><!--SRC=[pLN1Rjim3BtxAxIRYysNxHOK0Oe01NheCBHRheMdi8c0MCaaELkGxTz7MP9DIKxY0SEmN1mzKkGZAJszCHjeW75bghK2a4KXf07rMdDW2rL_VGIjGQv1dGg6lxUCRsfJDeZMQvYnPwEWRcuVtNf-mwfvYlbzQp1VDAW5RjTbvxS4VckNnCCkIvlXHQncJ7nutpbQD6J7q0OwDratZe2Gwyxj2NIx3OuQQiKtDgCklxMWZkZQGGibi3vHznIiJw1GI_qTr8Cye4_f5ZFcbdVTAa_a6Fajelk4BRcp0WxYuBrz6tox73OlVXM5Dghb9cx_GxFVdgmnGrbL_Pp7pWnxXnOSh3IQJlGlJ7FWbtCRuNMEqu1NrIulDJg6oF4Pr47W_zE_Fara70CDnp01_1m8sRXYQhbQipiDtltqFvxEYA6Zdq6k9H6SD2MsNMsBdNdIb3-zw4C599ZBam2EFG4JxjGoSQ2BdTHjGwwVMvSjXWg7z1tZMu4PNioF6VkiSCwDC1Zc9cj-Y4QxJp7Q_e2FzhytsZ961XiB2Cf0lo4jfBjj2ea_0HTm03MbcYIeopa23ef2AUIwGgssealA8YLixsjkTkfuYkvC6SJ2UiGoGFRqIf1WlHWGFDS3QWn4qqQCk8rDVoZgazgjMexdQTbFP- -WqdzdR3akSJv_YD1tCm2kAfA0LZGy4HTAwqEJ8Dc8C2m95X_vRZQhWU4eV9bdqB8BhKso96HpdKF28UfqNwVPQOLtdCC-Al4ipSnr79xIZPvB_En-t1dnAiWzbnOufdhbJ-AbEqwZ3SydHORtiyyQNPZ8Cb5lGolEwfM_1qwhCe5DjrEX7RDHmSrIHyMSyUdAIZjrTVuHlTy0]--></g></svg>