<?xml version="1.0" encoding="us-ascii" standalone="no"?><svg xmlns="http://www.w3.org/2000/svg" xmlns:xlink="http://www.w3.org/1999/xlink" contentStyleType="text/css" height="703px" preserveAspectRatio="none" style="width:700px;height:703px;background:#282828;" version="1.1" viewBox="0 0 700 703" width="700px" zoomAndPan="magnify"><defs/><g><rect fill="#282828" height="703" style="stroke:none;stroke-width:1.0;" width="700" x="0" y="0"/><!--class ChannelFactory--><g id="elem_ChannelFactory"><rect codeLine="3" fill="#282828" height="61.0146" id="ChannelFactory" rx="2.5" ry="2.5" style="stroke:#33FF33;stroke-width:1.0;" width="163" x="262" y="133"/><ellipse cx="287.15" cy="147" fill="#282828" rx="9" ry="9" style="stroke:#33FF33;stroke-width:1.0;"/><path d="M283.5777,143.2651 L283.5777,141.1069 L290.9571,141.1069 L290.9571,143.2651 L288.4918,143.2651 L288.4918,151.3418 L290.9571,151.3418 L290.9571,153.5 L283.5777,153.5 L283.5777,151.3418 L286.0431,151.3418 L286.0431,143.2651 Z " fill="#33FF33"/><text fill="#33FF33" font-family="Verdana" font-size="14" font-style="italic" lengthAdjust="spacing" textLength="108" x="301.85" y="152.5679">ChannelFactory</text><line style="stroke:#33FF33;stroke-width:1.0;" x1="263" x2="424" y1="161" y2="161"/><line style="stroke:#33FF33;stroke-width:1.0;" x1="263" x2="424" y1="169" y2="169"/><ellipse cx="273" cy="183.0073" fill="#282828" rx="3" ry="3" style="stroke:#33FF33;stroke-width:1.0;"/><text fill="#33FF33" font-family="Verdana" font-size="14" lengthAdjust="spacing" textLength="139" x="280" y="187.0752">create() -&gt; Channel</text></g><!--class ChannelFactoryImpl--><g id="elem_ChannelFactoryImpl"><rect codeLine="7" fill="#282828" height="44" id="ChannelFactoryImpl" rx="2.5" ry="2.5" style="stroke:#33FF33;stroke-width:1.0;" width="169" x="259" y="12"/><ellipse cx="272" cy="26" fill="#282828" rx="9" ry="9" style="stroke:#33FF33;stroke-width:1.0;"/><path d="M271.7334,27.063 Q269.8823,26.3574 269.2266,25.5813 Q268.5708,24.8052 268.5708,23.4937 Q268.5708,21.8086 269.6499,20.8457 Q270.729,19.8828 272.6133,19.8828 Q273.4683,19.8828 274.3232,20.0779 Q275.1782,20.2729 276.0166,20.6548 L276.0166,23.0454 Q275.228,22.4893 274.4146,22.1987 Q273.6011,21.9082 272.8042,21.9082 Q271.916,21.9082 271.4429,22.2651 Q270.9697,22.6221 270.9697,23.2861 Q270.9697,23.8008 271.3142,24.137 Q271.6587,24.4731 272.7544,24.8799 L273.8086,25.2783 Q275.3027,25.8262 276.0083,26.731 Q276.7139,27.6357 276.7139,29.0137 Q276.7139,30.8896 275.6057,31.8152 Q274.4976,32.7407 272.2563,32.7407 Q271.335,32.7407 270.4094,32.5208 Q269.4839,32.3008 268.6206,31.8691 L268.6206,29.3374 Q269.6001,30.0347 270.5173,30.375 Q271.4346,30.7153 272.3311,30.7153 Q273.2358,30.7153 273.7339,30.3044 Q274.2319,29.8936 274.2319,29.1548 Q274.2319,28.5986 273.8999,28.1794 Q273.5679,27.7603 272.937,27.5195 Z " fill="#33FF33"/><text fill="#33FF33" font-family="Verdana" font-size="14" lengthAdjust="spacing" textLength="141" x="284" y="31.5679">ChannelFactoryImpl</text><line style="stroke:#33FF33;stroke-width:1.0;" x1="260" x2="427" y1="40" y2="40"/><line style="stroke:#33FF33;stroke-width:1.0;" x1="260" x2="427" y1="48" y2="48"/></g><!--class Consumer_V--><g id="elem_Consumer_V"><rect codeLine="13" fill="#282828" height="61.0146" id="Consumer_V" rx="2.5" ry="2.5" style="stroke:#33FF33;stroke-width:1.0;" width="118" x="271.5" y="376.01"/><ellipse cx="284.5" cy="390.01" fill="#282828" rx="9" ry="9" style="stroke:#33FF33;stroke-width:1.0;"/><path d="M280.9277,386.2751 L280.9277,384.1169 L288.3071,384.1169 L288.3071,386.2751 L285.8418,386.2751 L285.8418,394.3518 L288.3071,394.3518 L288.3071,396.51 L280.9277,396.51 L280.9277,394.3518 L283.3931,394.3518 L283.3931,386.2751 Z " fill="#33FF33"/><text fill="#33FF33" font-family="Verdana" font-size="14" font-style="italic" lengthAdjust="spacing" textLength="90" x="296.5" y="395.5779">Consumer_V</text><line style="stroke:#33FF33;stroke-width:1.0;" x1="272.5" x2="388.5" y1="404.01" y2="404.01"/><line style="stroke:#33FF33;stroke-width:1.0;" x1="272.5" x2="388.5" y1="412.01" y2="412.01"/><ellipse cx="282.5" cy="426.0173" fill="#282828" rx="3" ry="3" style="stroke:#33FF33;stroke-width:1.0;"/><text fill="#33FF33" font-family="Verdana" font-size="14" lengthAdjust="spacing" textLength="74" x="289.5" y="430.0852">consume()</text></g><!--class InviteCreatedConsumer--><g id="elem_InviteCreatedConsumer"><rect codeLine="17" fill="#282828" height="44" id="InviteCreatedConsumer" rx="2.5" ry="2.5" style="stroke:#33FF33;stroke-width:1.0;" width="195" x="12" y="255.01"/><ellipse cx="25" cy="269.01" fill="#282828" rx="9" ry="9" style="stroke:#33FF33;stroke-width:1.0;"/><path d="M24.7334,270.073 Q22.8823,269.3674 22.2266,268.5913 Q21.5708,267.8152 21.5708,266.5037 Q21.5708,264.8186 22.6499,263.8557 Q23.729,262.8928 25.6133,262.8928 Q26.4683,262.8928 27.3232,263.0879 Q28.1782,263.2829 29.0166,263.6648 L29.0166,266.0554 Q28.228,265.4993 27.4146,265.2087 Q26.6011,264.9182 25.8042,264.9182 Q24.916,264.9182 24.4429,265.2751 Q23.9697,265.6321 23.9697,266.2961 Q23.9697,266.8108 24.3142,267.147 Q24.6587,267.4831 25.7544,267.8899 L26.8086,268.2883 Q28.3027,268.8362 29.0083,269.741 Q29.7139,270.6457 29.7139,272.0237 Q29.7139,273.8996 28.6057,274.8252 Q27.4976,275.7507 25.2563,275.7507 Q24.335,275.7507 23.4094,275.5308 Q22.4839,275.3108 21.6206,274.8791 L21.6206,272.3474 Q22.6001,273.0447 23.5173,273.385 Q24.4346,273.7253 25.3311,273.7253 Q26.2358,273.7253 26.7339,273.3144 Q27.2319,272.9036 27.2319,272.1648 Q27.2319,271.6086 26.8999,271.1894 Q26.5679,270.7703 25.937,270.5295 Z " fill="#33FF33"/><text fill="#33FF33" font-family="Verdana" font-size="14" lengthAdjust="spacing" textLength="167" x="37" y="274.5779">InviteCreatedConsumer</text><line style="stroke:#33FF33;stroke-width:1.0;" x1="13" x2="206" y1="283.01" y2="283.01"/><line style="stroke:#33FF33;stroke-width:1.0;" x1="13" x2="206" y1="291.01" y2="291.01"/></g><!--class InviteAcceptedConsumer--><g id="elem_InviteAcceptedConsumer"><rect codeLine="22" fill="#282828" height="44" id="InviteAcceptedConsumer" rx="2.5" ry="2.5" style="stroke:#33FF33;stroke-width:1.0;" width="204" x="241.5" y="255.01"/><ellipse cx="254.5" cy="269.01" fill="#282828" rx="9" ry="9" style="stroke:#33FF33;stroke-width:1.0;"/><path d="M254.2334,270.073 Q252.3823,269.3674 251.7266,268.5913 Q251.0708,267.8152 251.0708,266.5037 Q251.0708,264.8186 252.1499,263.8557 Q253.229,262.8928 255.1133,262.8928 Q255.9683,262.8928 256.8232,263.0879 Q257.6782,263.2829 258.5166,263.6648 L258.5166,266.0554 Q257.728,265.4993 256.9146,265.2087 Q256.1011,264.9182 255.3042,264.9182 Q254.416,264.9182 253.9429,265.2751 Q253.4697,265.6321 253.4697,266.2961 Q253.4697,266.8108 253.8142,267.147 Q254.1587,267.4831 255.2544,267.8899 L256.3086,268.2883 Q257.8027,268.8362 258.5083,269.741 Q259.2139,270.6457 259.2139,272.0237 Q259.2139,273.8996 258.1057,274.8252 Q256.9976,275.7507 254.7563,275.7507 Q253.835,275.7507 252.9094,275.5308 Q251.9839,275.3108 251.1206,274.8791 L251.1206,272.3474 Q252.1001,273.0447 253.0173,273.385 Q253.9346,273.7253 254.8311,273.7253 Q255.7358,273.7253 256.2339,273.3144 Q256.7319,272.9036 256.7319,272.1648 Q256.7319,271.6086 256.3999,271.1894 Q256.0679,270.7703 255.437,270.5295 Z " fill="#33FF33"/><text fill="#33FF33" font-family="Verdana" font-size="14" lengthAdjust="spacing" textLength="176" x="266.5" y="274.5779">InviteAcceptedConsumer</text><line style="stroke:#33FF33;stroke-width:1.0;" x1="242.5" x2="444.5" y1="283.01" y2="283.01"/><line style="stroke:#33FF33;stroke-width:1.0;" x1="242.5" x2="444.5" y1="291.01" y2="291.01"/></g><!--class MessageConsumer--><g id="elem_MessageConsumer"><rect codeLine="27" fill="#282828" height="44" id="MessageConsumer" rx="2.5" ry="2.5" style="stroke:#33FF33;stroke-width:1.0;" width="158" x="480.5" y="255.01"/><ellipse cx="493.5" cy="269.01" fill="#282828" rx="9" ry="9" style="stroke:#33FF33;stroke-width:1.0;"/><path d="M493.2334,270.073 Q491.3823,269.3674 490.7266,268.5913 Q490.0708,267.8152 490.0708,266.5037 Q490.0708,264.8186 491.1499,263.8557 Q492.229,262.8928 494.1133,262.8928 Q494.9683,262.8928 495.8232,263.0879 Q496.6782,263.2829 497.5166,263.6648 L497.5166,266.0554 Q496.728,265.4993 495.9146,265.2087 Q495.1011,264.9182 494.3042,264.9182 Q493.416,264.9182 492.9429,265.2751 Q492.4697,265.6321 492.4697,266.2961 Q492.4697,266.8108 492.8142,267.147 Q493.1587,267.4831 494.2544,267.8899 L495.3086,268.2883 Q496.8027,268.8362 497.5083,269.741 Q498.2139,270.6457 498.2139,272.0237 Q498.2139,273.8996 497.1057,274.8252 Q495.9976,275.7507 493.7563,275.7507 Q492.835,275.7507 491.9094,275.5308 Q490.9839,275.3108 490.1206,274.8791 L490.1206,272.3474 Q491.1001,273.0447 492.0173,273.385 Q492.9346,273.7253 493.8311,273.7253 Q494.7358,273.7253 495.2339,273.3144 Q495.7319,272.9036 495.7319,272.1648 Q495.7319,271.6086 495.3999,271.1894 Q495.0679,270.7703 494.437,270.5295 Z " fill="#33FF33"/><text fill="#33FF33" font-family="Verdana" font-size="14" lengthAdjust="spacing" textLength="130" x="505.5" y="274.5779">MessageConsumer</text><line style="stroke:#33FF33;stroke-width:1.0;" x1="481.5" x2="637.5" y1="283.01" y2="283.01"/><line style="stroke:#33FF33;stroke-width:1.0;" x1="481.5" x2="637.5" y1="291.01" y2="291.01"/></g><!--class Worker--><g id="elem_Worker"><rect codeLine="32" fill="#282828" height="61.0146" id="Worker" rx="2.5" ry="2.5" style="stroke:#33FF33;stroke-width:1.0;" width="140" x="260.5" y="635.03"/><ellipse cx="301.75" cy="649.03" fill="#282828" rx="9" ry="9" style="stroke:#33FF33;stroke-width:1.0;"/><path d="M298.1777,645.2951 L298.1777,643.1369 L305.5571,643.1369 L305.5571,645.2951 L303.0918,645.2951 L303.0918,653.3718 L305.5571,653.3718 L305.5571,655.53 L298.1777,655.53 L298.1777,653.3718 L300.6431,653.3718 L300.6431,645.2951 Z " fill="#33FF33"/><text fill="#33FF33" font-family="Verdana" font-size="14" font-style="italic" lengthAdjust="spacing" textLength="50" x="319.25" y="654.5979">Worker</text><line style="stroke:#33FF33;stroke-width:1.0;" x1="261.5" x2="399.5" y1="663.03" y2="663.03"/><line style="stroke:#33FF33;stroke-width:1.0;" x1="261.5" x2="399.5" y1="671.03" y2="671.03"/><ellipse cx="271.5" cy="685.0373" fill="#282828" rx="3" ry="3" style="stroke:#33FF33;stroke-width:1.0;"/><text fill="#33FF33" font-family="Verdana" font-size="14" lengthAdjust="spacing" textLength="116" x="278.5" y="689.1052">work() -&gt; Result</text></g><!--class WorkerImpl--><g id="elem_WorkerImpl"><rect codeLine="36" fill="#282828" height="44" id="WorkerImpl" rx="2.5" ry="2.5" style="stroke:#33FF33;stroke-width:1.0;" width="111" x="275" y="514.03"/><ellipse cx="288" cy="528.03" fill="#282828" rx="9" ry="9" style="stroke:#33FF33;stroke-width:1.0;"/><path d="M287.7334,529.093 Q285.8823,528.3874 285.2266,527.6113 Q284.5708,526.8352 284.5708,525.5237 Q284.5708,523.8386 285.6499,522.8757 Q286.729,521.9128 288.6133,521.9128 Q289.4683,521.9128 290.3232,522.1079 Q291.1782,522.3029 292.0166,522.6848 L292.0166,525.0754 Q291.228,524.5193 290.4146,524.2287 Q289.6011,523.9382 288.8042,523.9382 Q287.916,523.9382 287.4429,524.2951 Q286.9697,524.6521 286.9697,525.3161 Q286.9697,525.8308 287.3142,526.167 Q287.6587,526.5031 288.7544,526.9099 L289.8086,527.3083 Q291.3027,527.8562 292.0083,528.761 Q292.7139,529.6657 292.7139,531.0437 Q292.7139,532.9196 291.6057,533.8452 Q290.4976,534.7707 288.2563,534.7707 Q287.335,534.7707 286.4094,534.5508 Q285.4839,534.3308 284.6206,533.8991 L284.6206,531.3674 Q285.6001,532.0647 286.5173,532.405 Q287.4346,532.7453 288.3311,532.7453 Q289.2358,532.7453 289.7339,532.3344 Q290.2319,531.9236 290.2319,531.1848 Q290.2319,530.6286 289.8999,530.2094 Q289.5679,529.7903 288.937,529.5495 Z " fill="#33FF33"/><text fill="#33FF33" font-family="Verdana" font-size="14" lengthAdjust="spacing" textLength="83" x="300" y="533.5979">WorkerImpl</text><line style="stroke:#33FF33;stroke-width:1.0;" x1="276" x2="385" y1="542.03" y2="542.03"/><line style="stroke:#33FF33;stroke-width:1.0;" x1="276" x2="385" y1="550.03" y2="550.03"/></g><!--link ChannelFactoryImpl to ChannelFactory--><g id="link_ChannelFactoryImpl_ChannelFactory"><path codeLine="9" d="M343.5,56.34 C343.5,77.32 343.5,91.53 343.5,114.97 " fill="none" id="ChannelFactoryImpl-to-ChannelFactory" style="stroke:#33FF33;stroke-width:1.0;"/><polygon fill="none" points="343.5,132.97,349.5,114.97,337.5,114.97,343.5,132.97" style="stroke:#33FF33;stroke-width:1.0;"/><text fill="#33FF33" font-family="Verdana" font-size="13" lengthAdjust="spacing" textLength="78" x="344.5" y="100.0698">implements</text></g><!--link InviteCreatedConsumer to Consumer_V--><g id="link_InviteCreatedConsumer_Consumer_V"><path codeLine="19" d="M127,299.35 C139.96,314.06 158.75,333.19 178.5,346.01 C206.91,364.45 224.8683,372.8745 254.1183,382.7645 " fill="none" id="InviteCreatedConsumer-to-Consumer_V" style="stroke:#33FF33;stroke-width:1.0;"/><polygon fill="none" points="271.17,388.53,256.0402,377.0806,252.1965,388.4484,271.17,388.53" style="stroke:#33FF33;stroke-width:1.0;"/><text fill="#33FF33" font-family="Verdana" font-size="13" lengthAdjust="spacing" textLength="138" x="179.5" y="343.0798">implements&lt;Invite&gt;</text></g><!--link ChannelFactory to InviteCreatedConsumer--><g id="link_ChannelFactory_InviteCreatedConsumer"><path codeLine="20" d="M280.79,194.39 C240.99,213.35 201.2533,232.2887 165.4033,249.3687 " fill="none" id="ChannelFactory-to-InviteCreatedConsumer" style="stroke:#33FF33;stroke-width:1.0;"/><polygon fill="none" points="154.57,254.53,161.7071,255.5604,165.4033,249.3687,158.2662,248.3382,154.57,254.53" style="stroke:#33FF33;stroke-width:1.0;"/></g><!--link InviteAcceptedConsumer to Consumer_V--><g id="link_InviteAcceptedConsumer_Consumer_V"><path codeLine="24" d="M335.16,299.51 C332.1,308.48 329.02,319.1 327.5,329.01 C325.17,344.25 324.1311,343.4468 325.2611,357.6368 " fill="none" id="InviteAcceptedConsumer-to-Consumer_V" style="stroke:#33FF33;stroke-width:1.0;"/><polygon fill="none" points="326.69,375.58,331.2422,357.1605,319.2801,358.1131,326.69,375.58" style="stroke:#33FF33;stroke-width:1.0;"/><text fill="#33FF33" font-family="Verdana" font-size="13" lengthAdjust="spacing" textLength="187" x="328.5" y="343.0798">implements&lt;InviteAnswer&gt;</text></g><!--link ChannelFactory to InviteAcceptedConsumer--><g id="link_ChannelFactory_InviteAcceptedConsumer"><path codeLine="25" d="M343.5,194.39 C343.5,213.35 343.5,225.45 343.5,242.53 " fill="none" id="ChannelFactory-to-InviteAcceptedConsumer" style="stroke:#33FF33;stroke-width:1.0;"/><polygon fill="none" points="343.5,254.53,347.5,248.53,343.5,242.53,339.5,248.53,343.5,254.53" style="stroke:#33FF33;stroke-width:1.0;"/></g><!--link MessageConsumer to Consumer_V--><g id="link_MessageConsumer_Consumer_V"><path codeLine="29" d="M552.15,299.25 C545.92,314.31 535.57,333.91 520.5,346.01 C483.04,376.1 447.9568,387.8243 407.5168,395.2143 " fill="none" id="MessageConsumer-to-Consumer_V" style="stroke:#33FF33;stroke-width:1.0;"/><polygon fill="none" points="389.81,398.45,408.5954,401.1165,406.4382,389.312,389.81,398.45" style="stroke:#33FF33;stroke-width:1.0;"/><text fill="#33FF33" font-family="Verdana" font-size="13" lengthAdjust="spacing" textLength="157" x="535.5" y="343.0798">implements&lt;Message&gt;</text></g><!--link ChannelFactory to MessageConsumer--><g id="link_ChannelFactory_MessageConsumer"><path codeLine="30" d="M401.38,194.39 C438.12,213.35 474.1467,231.946 507.2367,249.026 " fill="none" id="ChannelFactory-to-MessageConsumer" style="stroke:#33FF33;stroke-width:1.0;"/><polygon fill="none" points="517.9,254.53,514.403,248.2236,507.2367,249.026,510.7337,255.3324,517.9,254.53" style="stroke:#33FF33;stroke-width:1.0;"/></g><!--link WorkerImpl to Worker--><g id="link_WorkerImpl_Worker"><path codeLine="38" d="M330.5,558.37 C330.5,579.35 330.5,593.56 330.5,616.99 " fill="none" id="WorkerImpl-to-Worker" style="stroke:#33FF33;stroke-width:1.0;"/><polygon fill="none" points="330.5,634.99,336.5,616.99,324.5,616.99,330.5,634.99" style="stroke:#33FF33;stroke-width:1.0;"/><text fill="#33FF33" font-family="Verdana" font-size="13" lengthAdjust="spacing" textLength="78" x="331.5" y="602.0998">implements</text></g><!--link Consumer_V to WorkerImpl--><g id="link_Consumer_V_WorkerImpl"><path codeLine="40" d="M271.12,425.48 C239.2,438.5 209.4,458.31 225.5,484.03 C236.58,501.72 244.6195,508.9207 263.5595,516.6007 " fill="none" id="Consumer_V-to-WorkerImpl" style="stroke:#33FF33;stroke-width:1.0;"/><polygon fill="none" points="274.68,521.11,270.6228,515.1485,263.5595,516.6007,267.6166,522.5622,274.68,521.11" style="stroke:#33FF33;stroke-width:1.0;"/><text fill="#33FF33" font-family="Verdana" font-size="13" lengthAdjust="spacing" textLength="60" x="226.5" y="481.0998">&lt;Invite&gt;</text></g><!--link Consumer_V to WorkerImpl--><g id="link_Consumer_V_WorkerImpl"><path codeLine="41" d="M328.38,437.31 C327.62,451.46 327.05,468.61 327.5,484.03 C327.79,493.78 327.6061,492.595 328.1961,501.725 " fill="none" id="Consumer_V-to-WorkerImpl-1" style="stroke:#33FF33;stroke-width:1.0;"/><polygon fill="none" points="328.97,513.7,332.5747,507.4545,328.1961,501.725,324.5914,507.9704,328.97,513.7" style="stroke:#33FF33;stroke-width:1.0;"/><text fill="#33FF33" font-family="Verdana" font-size="13" lengthAdjust="spacing" textLength="109" x="328.5" y="481.0998">&lt;InviteAnswer&gt;</text></g><!--link Consumer_V to WorkerImpl--><g id="link_Consumer_V_WorkerImpl"><path codeLine="42" d="M389.64,423.33 C425.17,436.02 460.34,456.3 442.5,484.03 C429.9,503.61 419.0394,511.7762 397.7294,519.2762 " fill="none" id="Consumer_V-to-WorkerImpl-2" style="stroke:#33FF33;stroke-width:1.0;"/><polygon fill="none" points="386.41,523.26,393.3977,525.0412,397.7294,519.2762,390.7418,517.4949,386.41,523.26" style="stroke:#33FF33;stroke-width:1.0;"/><text fill="#33FF33" font-family="Verdana" font-size="13" lengthAdjust="spacing" textLength="79" x="447.5" y="481.0998">&lt;Message&gt;</text></g><!--SRC=[ZPBFJiCm3CRlVWfpOXFq1IPKQPg4j0CN3d14KJ1RHPjEZik4W7SdpEc_T1Hwghzyjd-ESo5xgWWjIxPZ8WTGE25-CPPmipVEKNbhhDJy_W4OlgjW9IEqM6AMjmxu0l32ZPKaPriTIe2fXbdscITUN64HZWAD4mzmYOLxAuHYl-VhDZRMqk4aLEIzsT48kNQ-gOYV7ZfSLHRB0UJsL6cZXTiKWBDoHEtgZZ1lD2LFHWmvzMzDHWZhE4lAaEh_WLWxVoIUGPasYontUe-zdWZptQFvRED9vNvJZpM_4hTREeP8dzGz-QQKmRBKg2-f_rScZPENCm3zOHZahB1VsD-cxaBdhDtqtm00]--></g></svg>